<?xml version="1.0"?>
<svg xmlns:rdf="http://www.w3.org/1999/02/22-rdf-syntax-ns#" xmlns="http://www.w3.org/2000/svg" xmlns:cc="http://web.resource.org/cc/" xmlns:xlink="http://www.w3.org/1999/xlink" xmlns:dc="http://purl.org/dc/elements/1.1/" id="Layer_1" xml:space="preserve" overflow="visible" viewBox="0 0 275.808 394.124" version="1.1" enable-background="new 0 0 275.808 394.124">
<g clip-rule="evenodd" fill-rule="evenodd">
	<path d="m227.34 33.586c0.478-0.066 0.729 0.09 0.819 0.41-1.782 6.818-9.939 7.262-14.745 11.058 2.21-4.607 9.96-7.234 13.92-11.468z" fill="#00703C"/>
	<path d="m151.98 37.272c1.947-0.573 5.821 0.452 5.324 3.686-2.34-0.658-3.63-2.38-5.32-3.686z" fill="#00703C"/>
	<path d="m174.09 37.272c1.834-0.731 4.246 1.479 6.145 2.048-2.46 1.348-4.7-1.029-6.15-2.048z" fill="#00703C"/>
	<path d="m218.74 36.862c-0.185 1.182-1.762 0.969-2.049 2.048-1.09-0.854 1.16-1.819 2.05-2.048z" fill="#00703C"/>
	<path d="m164.67 40.139c3.233-0.499 8.408 0.6 11.468 1.638-4.39 2.336-8.01 0.09-11.47-1.638z" fill="#00703C"/>
	<path d="m168.77 44.645c0.304 1.26-1.124 0.787-0.819 2.048-3.996-0.919-6.294-3.536-9.829-4.916 3.32-1.955 7.45 2.013 10.65 2.868z" fill="#00703C"/>
	<path d="m238.81 45.054c-0.591 1.48-2.006 2.003-3.277 0.82 0.65-0.711 1.84-0.888 3.28-0.82z" fill="#00703C"/>
	<path d="m178.6 49.15c-2.3 0.382-7.802 0.436-9.42-1.229 1.66-4.316 6.8 0.298 9.42 1.229z" fill="#00703C"/>
	<path d="m234.3 45.874c-1.931 1.619-4.656 2.442-6.964 3.686-1.21-3.128 4.07-3.298 6.96-3.686z" fill="#00703C"/>
	<path d="m194.16 50.789c-1.809-0.374-2.515-1.854-4.094-2.458 1.16-1.538 3.97 0.446 4.09 2.458z" fill="#00703C"/>
	<path d="m224.06 48.331c1.2 0.346-0.245 1.318 0 2.047-0.72-0.099-0.933-0.704-0.819-1.639 0.48 0.068 0.73-0.089 0.82-0.408z" fill="#00703C"/>
	<path d="m221.6 51.607c-2.126 1.97-6.063 2.127-9.01 3.277 2.24-1.821 6.02-5.982 9.01-3.277z" fill="#00703C"/>
	<path d="m203.58 54.474c-1.812 1.056-3.617 2.117-5.734 2.867 0.6-2.263 2.94-2.788 5.73-2.867z" fill="#00703C"/>
	<path d="m163.85 54.884c4.487-0.393 6.57 1.622 8.19 4.096-3.627 0.078-5.911-1.187-8.19-2.458v-1.638z" fill="#00703C"/>
	<path d="m172.46 56.522c3.674-0.393 8.497 1.605 11.878 2.867-4.61 1.323-10.38 0.268-11.88-2.867z" fill="#00703C"/>
	<path d="m238.4 56.113c-1.079 1.249-3.694 3.119-5.322 2.458 1.09-1.502 3.6-1.585 5.32-2.458z" fill="#00703C"/>
	<path d="m138.46 57.751c2.242-0.868 6.595-0.321 7.373 1.638-2.77 0.886-4.77-1.144-7.37-1.638z" fill="#A99A6F"/>
	<path d="m140.51 60.618c-4.251 2.847-8.67 5.528-11.877 9.42-2.462-0.952-4.831-1.998-7.782-2.457 4.33-5.115 11.81-12.456 19.66-6.963z" fill="#A99A6F"/>
	<path d="m207.27 59.389c1.045 1.135-3.829 3.203-6.145 3.687 0.32 2.095-0.763 2.785-2.456 2.867 0.483-1.563 1.578-2.517 1.228-4.915 2.57-0.435 4.99-1.023 7.38-1.639z" fill="#00703C"/>
	<path d="m151.57 63.894c-2.089 0.986-4.556-1.169-7.373-0.818 1.61-1.863 5.26 0.522 7.37 0.818z" fill="#00703C"/>
	<path d="m171.64 63.076c2.113-0.876 5.185 0.812 6.144 2.457-2.36-0.505-4.07-1.669-6.14-2.457z" fill="#00703C"/>
	<path d="m173.28 66.762c-1.134 1.238-2.278-0.976-3.687-0.819 0.59-1.697 2.92 0.156 3.69 0.819z" fill="#00703C"/>
	<path d="m260.1 65.943c1.855 0.465 3.527 1.115 4.915 2.048-0.218 1.147-1.974 0.757-2.868 1.228-0.49-1.279-1.77-1.781-2.05-3.276z" fill="#D31145"/>
	<path d="m120.03 68.4c1.588 1.96 5.308 1.792 7.372 3.276-2.82 3.689-5.389 9.035-5.734 13.926-4.575-0.694-9.195-2.565-6.552-8.192 2.463-0.142 3.269 1.372 5.733 1.229 0.162-2.619-2.419-2.496-4.506-2.867 0.54-3.143 2.24-5.13 3.69-7.372z" fill="#A99A6F"/>
	<path d="m156.89 70.038c0.296-0.4 3.362-0.107 4.097 0.41-0.07 2.339-3.24 0.196-4.1-0.41z" fill="#00703C"/>
	<path d="m271.57 75.363c-1.602-1.201-3.162 0.469-4.914 0.409-0.542-2.19-2.235-3.226-2.869-5.324 4.25-2.178 6.68 1.578 7.78 4.915z" fill="#D31145"/>
	<path d="m198.26 70.038c1.192 1.154 2.461 1.501 3.687 0 0.588 0.64 1.031 1.426 2.049 1.638-1.727 0.595-3.655 0.988-5.735 1.229 0.14-1.269-0.95-1.956 0-2.867z" fill="#00703C"/>
	<path d="m145.83 70.448c1.405 0.369 3.31 0.24 3.686 1.638-1.65-0.121-3.2-0.354-3.69-1.638z" fill="#00703C"/>
	<path d="m179.83 73.314c-2.234 1.639-8.759 0.978-10.649-0.409 0.94-5.702 8.06-0.029 10.65 0.409z" fill="#00703C"/>
	<path d="m206.45 70.448c0.188 1.279-0.874 1.309-2.049 1.228 0.28-0.808 1.1-1.091 2.05-1.228z" fill="#00703C"/>
	<path d="m150.75 72.086c0.541-0.776 2.598 0.38 3.688 0.409-0.432 1.646-1.665-0.053-3.277 0.41 0.06-0.476-0.09-0.728-0.41-0.819z" fill="#00703C"/>
	<path d="m223.24 74.134c-4.905 0.379-7.458 1.45-12.287 1.229 2.75-1.139 9.9-3.762 12.29-1.229z" fill="#00703C"/>
	<path d="m162.22 74.953c-1.86-0.529-3.071 0.693-3.687-1.228 1.3-0.571 3.14-0.089 3.69 1.228z" fill="#00703C"/>
	<path d="m272.8 85.193c-0.612-0.964-3.119-1.229-3.688 0-0.532-2.744-0.835-5.718-1.638-8.192 1.632-0.007 2.885-0.391 3.687-1.229 1.92 1.768 2.56 6.073 1.64 9.421z" fill="#D31145"/>
	<path d="m218.33 77.001c-3.472 2.672-9.847 2.442-14.334 4.096 0.296-1.252-0.707-1.205-0.41-2.458 4.37-1.089 10.01-0.909 14.74-1.638z" fill="#00703C"/>
	<path d="m175.32 79.049c0.971-0.942 3.677-0.146 5.325-0.41-1.26 1.047-3.58 0.87-5.32 0.41z" fill="#00703C"/>
	<path d="m201.54 81.506c-1.009 0.903-3.14 0.683-3.276 2.458-1.116-1.144 0.482-3.047 0.818-4.095 1.6-0.368 2.77-0.72 2.46 1.637z" fill="#00703C"/>
	<path d="m191.3 83.964c1.093 0.002 0.891-1.294 2.049-1.229 0.681 2.321-1.932 1.346-2.459 2.458-2.243-1.306-4.975-2.125-6.553-4.096 3.88-1.028 4.39 1.635 6.96 2.867z" fill="#00703C"/>
	<path d="m158.53 81.097c1.505 0.134 3.626-0.349 4.506 0.41v2.458c-2.64 0.179-4.53-0.386-4.51-2.868z" fill="#00703C"/>
	<path d="m228.98 81.506c-0.542 1.916-1.981 2.934-2.458 4.915-1.455-0.046-1.488-1.515-3.276-1.229 1.4-1.741 3.57-2.714 5.74-3.686z" fill="#00703C"/>
	<path d="m175.32 81.916c3.528 0.568 7.261 0.932 8.603 3.687-4.01 0.661-8.88 1.018-8.6-3.687z" fill="#00703C"/>
	<path d="m165.9 83.964c0.596 0.224 2.117-0.479 2.049 0.41 0.46 1.404-2.98 1.212-2.05-0.41z" fill="#00703C"/>
	<path d="m219.56 83.964c-1.343 2.22-5.789 3.302-8.6 1.639 2.57-0.836 5.34-1.484 8.6-1.639z" fill="#00703C"/>
	<path d="m131.91 85.193c5.639-0.089 8.478 0.197 12.697 1.639-0.483 1.563-2.484 1.61-4.096 2.047 0.339-1.158-0.577-1.061-0.41-2.047h-7.781c-1.097 3.72 4.388 1.555 6.553 2.867-1.404 2.282-5.548 1.824-6.963 4.095-0.88-2.112-0.41-6.406 0-8.601z" fill="#A99A6F"/>
	<path d="m114.29 86.011c2.576 0.292 4.328 1.408 6.962 1.638 0.074 6.753 1.236 12.419 0.82 19.661-2.805-0.608-4.915-1.913-7.372-2.867-0.75-4.35-0.27-12.229-0.41-18.429z" fill="#A99A6F"/>
	<path d="m271.57 86.421c-0.239 3.992-3.194 5.271-4.914 7.782-0.698-2.072 2.188-4.084 1.639-7.372 1.54 0.315 1.96-0.499 3.27-0.41z" fill="#D31145"/>
	<path d="m150.34 87.649c1.021 0.345 2.195 0.537 3.687 0.411-0.344 0.885-1.061 1.397-0.819 2.867h-2.867c0.06-1.265-0.97-2.316 0-3.278z" fill="#00703C"/>
	<path d="m191.3 87.649c2.263 0.878 3.479 2.803 3.277 6.144h-3.277c-0.589-3.506-7.261-0.929-8.191-4.095 4.028-0.811 6.548 2.584 9.42 0.41-0.03-1.201-1.57-0.898-1.23-2.459z" fill="#00703C"/>
	<path d="m205.63 88.06c1.016 0.484 2.408 0.593 3.684 0.819-0.399 0.964-2.362 0.368-2.866 1.229-0.89-0.061-0.87-1.032-0.81-2.048z" fill="#00703C"/>
	<path d="m110.2 89.698h1.229c0.348 3.228-3.776 3.126-5.325 3.686-13.998 5.066-25.807 15.69-31.946 29.49 3.734-0.406 4.876-6.364 7.372-9.42 5.783-7.081 13.808-12.085 21.298-17.203 3.708 0.022 5.299-2.073 8.601-2.458 0.492 4.382-0.148 7.392 0.41 11.878 2.748 1.999 10.622 5.338 14.744 5.325 7.229-0.023 15.146-7.042 21.708-7.782 5.763-0.649 11.314 3.063 18.021 2.048-5.083 2.545-14.514-1.038-18.84 0.819 2.203 4.747 14.309 1.604 20.479 1.639-13.378 3.551-30.753 4.363-44.235 9.01-4.784 1.65-8.129 2.289-9.83 5.325 2.944 20.13 9.648 36.498 20.888 48.33-11.183 2.228-12.25 17.072-11.877 29.489 0.473 15.703 5.878 37.525 20.069 39.32 2.232 0.283 3.766-0.044 5.325-0.408-1.042 21.652 1.139 42.95 4.506 64.714-22.942 4.698-48.638-0.653-66.762-8.193-2.409-1.002-4.956-4.306-7.782-2.047 1.042 2.012 3.946 3.166 6.144 4.095 18.259 7.72 45.527 13.428 68.399 9.012 0.486 2.788 1.408 5.145 1.229 8.602-8.782 0.556-20.244 1.536-29.899 0.41-4.583-0.537-9.282-3.229-12.697-0.82 0.588 2.784 4.521 2.587 6.963 2.866 10.509 1.199 25.626 1.519 35.633 0 1.47 7.668 3.341 15.261 5.325 21.299-25.565 3.364-54.835 1.064-77.412-5.324-22.807-6.455-45.053-18.986-56.932-35.224-6.029-8.243-9.948-19.101-7.372-32.356-0.351-1.717 1.833-0.898 2.458-1.639 3.117-15.86 14.155-23.8 23.755-33.177-2.841-0.263-5.638 2.2-7.782 4.097-7.232 6.395-13.995 16.338-18.021 26.212 1.156-8.683 6.491-14.969 11.058-20.479 4.71-5.684 10.735-10.495 17.612-13.925-0.853 3.378-1.233 7.231-2.048 10.648-1.968 2.401-5.402 3.334-6.963 6.145 2.637 2.676 5.407-1.35 7.373-2.048 6.258-14.128 7.178-32.163 10.648-49.56 1.442-7.224 3.922-17.38 5.325-25.804 1.014-6.092 1.644-11.026 2.867-17.612 5.503-29.604 19.919-49.651 45.873-58.979 0.15-0.023 0.28-0.023 0.42-0.023zm-4.51 11.472c-4.094 3.022-10.766 5.596-12.288 9.83 3.147-0.687 5.333-3.227 7.782-4.915 1.933-1.333 5.132-2.122 5.734-4.915-0.4 0.01-0.81 0.01-1.22 0.01zm15.16 63.07c-20.79-4.042-38.825-11.546-47.921-27.852-0.09-0.319-0.342-0.476-0.819-0.41-0.107 0.576-0.899 0.467-1.229 0.819 7.715 15.221 22.452 23.42 41.368 27.442 3.245 1.396 10.833 4.08 13.926 1.638-0.81-2.41-3.23-1.23-5.33-1.64zm-49.971-19.25c6.249 6.312 11.897 13.224 21.708 15.974-1.267-3.244-5.246-3.684-7.782-5.324-4.79-3.098-9.563-7.495-12.287-11.877-0.524-0.022-0.567-0.524-1.229-0.41-0.129 0.56-0.584 0.79-0.41 1.64zm-4.095 0.82c-4.391 18.784-7.123 38.411-11.059 57.341-1.866 8.975-4.77 17.58-4.915 26.624 3.354-3.247 2.389-8.488 3.276-12.698 4.832-22.914 10.717-49.259 14.335-72.495h-1.228c-0.022 0.52-0.525 0.57-0.409 1.23zm22.935 2.05c-0.106-0.637-0.898-0.284-1.228 0-0.319 0.09-0.477 0.343-0.41 0.819 6.082 3.74 13.985 7.752 21.708 10.24 2.188 0.704 5.94 1.875 8.191 0.41-9.84-3.4-20.55-5.94-28.261-11.47zm-13.105 14.33c-1.276 11.089-5.844 24.822-6.963 35.224-0.083 0.765-1.202 3.354 0.819 3.686 2.45-13.254 6.127-27.454 7.782-40.14h-1.229c-0.023 0.53-0.525 0.57-0.409 1.23zm43.006 7.79c-7.595-1.313-14.504-5.03-20.479-6.144-0.319 0.091-0.476 0.343-0.409 0.819 5.637 2.568 13.617 5.219 20.889 6.553 3.028 0.556 7.619 1.957 9.83 0-2.96-1.77-6.51-0.66-9.83-1.23zm-54.475 53.65c-1.6 8.832-4.782 18.134-4.505 25.393 3.072-1.121 1.992-5.312 2.457-8.19 1.374-8.513 4.679-18.396 4.505-25.394h-1.228c-1.156 2.49-0.721 5.39-1.229 8.19zm-30.718 26.62c-0.37 0.722-0.916 1.269-1.639 1.639-0.037 36.548 28.447 47.965 54.884 59.388 4.694-0.556 9.663 4.565 13.106 1.229-4.533-2.699-9.906-2.504-14.745-4.095-6.626-2.178-12.346-6.397-18.84-8.193 0.092-0.773-0.462-0.903-0.41-1.637-17.217-8.71-33.15-22.656-31.128-47.92-0.566 0.01-0.9-0.2-1.23-0.42zm13.515 3.69c-0.319 0.09-0.476 0.342-0.409 0.818 0.281 15.966 9.257 23.235 17.202 31.538 2.578 0.231 3.485 4.048 6.553 2.457-0.503-2.842-3.505-3.882-5.325-5.324-8.283-6.565-15.622-14.957-15.973-29.081-1.285 0.19-1.082-1.42-2.048-0.42zm6.144 27.85c2.828 2.088 5.143 4.688 7.373 7.373 5.988 4.024 13.417 7.918 20.478 11.057 2.789 1.242 7.446 4.664 9.831 2.459-1.054-1.813-3.803-1.932-6.144-2.459-18.432-7.779-34.014-18.41-39.729-38.909-0.091-0.318-0.343-0.475-0.819-0.407-0.867 9.21 5.517 14.68 9.01 20.89zm-24.574-15.15c0.961 2.474 1.329 5.582 2.458 8.191 2.488 5.757 6.767 12.265 11.059 13.517-4.672-6.795-10.162-12.774-11.468-22.937h-1.638c-0.024 0.52-0.527 0.56-0.411 1.23zm10.239 44.64c9.939 5.612 21.436 14.653 33.176 17.613 1.139 0.286 4.158 1.679 4.505-0.41-1.627-1.104-3.355-2.106-6.144-2.049-20.083-8.239-38.492-19.469-47.511-38.499-0.71-1.499-0.563-3.523-2.458-4.506h-0.819c3.687 12.02 11.479 19.93 19.251 27.86zm75.369 8.19c-6.213-0.729-12.427-2.739-18.432-4.094-18.757-4.235-34.223-11.344-46.692-20.89-0.024-0.25-0.062-0.484-0.411-0.409-0.411-0.003-0.486 0.331-0.819 0.409v1.228c19.057 14.819 47.564 24.297 78.23 26.623 5.087 0.387 11.767 0.255 16.383 0 1.471-0.08 4.452 1.07 4.915-1.229-10.59-0.73-23-0.44-33.18-1.64zm-13.52-13.51c-0.018 0.563 0.193 0.899 0.41 1.229 11.33 2.433 27.372 4.793 41.777 4.096 2.965-0.144 6.864 0.318 8.191-2.047-16.99 1.52-35.67-0.9-50.38-3.28zm-10.242 27.44c-0.319 0.089-0.476 0.343-0.409 0.817 14.844 3.351 36.957 5.931 56.522 4.507 3.247-0.237 6.755-0.465 9.011-2.458-22.62 1.65-45.79 0.27-65.122-2.87z" fill="#A99A6F"/>
	<path d="m217.51 90.108c-0.661 1.797-2.777 2.139-4.097 3.276-1.58-0.058-1.893-1.384-3.687-1.229 1.61-1.676 4.45-2.111 7.79-2.047z" fill="#00703C"/>
	<path d="m170.82 90.927h2.459v2.047c-1.55 0.047-2.21-0.8-2.46-2.047z" fill="#00703C"/>
	<path d="m222.01 90.927c0.856-0.174 1.085 0.281 1.639 0.409-0.781 0.995-0.864 2.686-2.458 2.867-0.87-0.998 0.3-2.429 0.82-3.276z" fill="#00703C"/>
	<path d="m145.01 94.613c-0.967 0.67-2.982 0.294-2.457 2.458 0.767 1.673 3.203-0.286 4.916 0.819-0.996 0.872-2.337 1.85-1.229 3.687-4.795 2.031-9.93 3.723-14.335 6.144-1.481-1.927 0.338-6.088-0.818-8.191 3.61-2.35 9.1-6.45 13.93-4.916z" fill="#A99A6F"/>
	<path d="m200.31 93.793c1.177 0.871 3.357 0.738 3.687 2.458-1.737 0.099-2.902-0.376-4.098-0.819-0.18-0.856 0.28-1.084 0.41-1.639z" fill="#00703C"/>
	<path d="m206.45 94.204c0.698-1.065 2.873-0.175 3.276 0.409-0.7 1.359-2.65 0.535-3.28-0.409z" fill="#00703C"/>
	<path d="m233.07 95.432c-1.963 2.271-4.616 3.85-8.193 4.506 1.53-2.549 5.31-4.634 8.19-4.506z"/>
	<path d="m217.51 97.889c-2.144 1.834-4.273 0.664-6.145-0.409 1.62-2.176 4.7-0.838 6.15 0.409z" fill="#00703C"/>
	<path d="m127.81 97.889c0.915 0.177 0.166 2.019 0.409 2.867-1-1.007-1.775 0.303-3.276 0-0.3-2.22 2.54-1.294 2.87-2.871z" fill="#A99A6F"/>
	<path d="m161.4 98.709c0.224 1.675-1.767 1.384-2.047 0.409 0.28-1.284 1.09-0.534 2.05-0.409z" fill="#00703C"/>
	<path d="m148.29 99.118c0.176-0.916 2.019-0.166 2.867-0.409-0.01 1.19-2.32 0.969-2.87 0.409z" fill="#00703C"/>
	<path d="m198.67 98.709c1.252-0.297 1.204 0.707 2.456 0.409-0.699 0.666-1.489 1.24-2.866 1.229-0.05-0.738 0.5-0.866 0.41-1.641z" fill="#00703C"/>
	<path d="m172.86 101.58c-2.076 1.247-6.176 1.562-9.011 0.819 0.15-4.591 7.36-3.572 9.01-0.82z" fill="#00703C"/>
	<path d="m174.91 100.76c0.986-0.167 0.889 0.749 2.046 0.41 0.12 1.06-2.77 1.42-2.05-0.41z" fill="#00703C"/>
	<path d="m106.92 101.17c-0.602 2.793-3.801 3.582-5.734 4.915-2.45 1.688-4.635 4.228-7.782 4.915 1.522-4.234 8.194-6.808 12.288-9.83h1.22z"/>
	<path d="m127.81 101.58c0.742 1.306 0.594 5.224 0 6.553h-2.049c-0.939-1.734-0.355-2.575-0.818-4.915 1.51 0 1.86-1.16 2.87-1.64z" fill="#A99A6F"/>
	<path d="m194.16 101.99v3.686c-2.522-0.342-5.948 0.215-6.963-1.638 0.539 0.417 1.511 0.402 2.049 0.819 0.992-0.237 0.912-1.547 1.23-2.458 1.58 0.21 2-0.74 3.68-0.41z" fill="#00703C"/>
	<path d="m205.22 102.4c0.365 0.182 0.731 0.359 0.818 0.819 0.038 2.094-3.733 2.125-4.095 0.41 0.64-0.88 2.84-0.18 3.28-1.23z" fill="#00703C"/>
	<path d="m231.44 117.96c-1.799 2.571-4.191 4.546-5.735 7.372-6.465-0.497-8.567-5.358-12.287-8.602 2.175-2.74 2.995-6.835 5.735-9.01 4.96 2.56 8.66 6.36 12.3 10.24z" fill="#D31145"/>
	<path d="m174.91 108.13c2.157 0.299 4.184 0.73 4.095 3.277-0.81-1.64-2.76-2.15-4.09-3.28z" fill="#00703C"/>
	<path d="m191.71 110.59c0.869-1.107 3.016-0.04 3.687 0.409-1.46 0.8-2.41 0.16-3.69-0.41z" fill="#00703C"/>
	<path d="m185.15 135.16c-10.997 2.526-16.312 13.898-11.878 26.213-1.53-0.438-1.169 1.017-2.459 0.819 1.961-4.141-5.626-1.44-6.962 0.409 1.053 1.584 2.457 0.765 4.506 0.82-1.328 2.289-5.32 3.666-8.193 2.047-1.808-3.738 2.457-9.361 4.507-13.107 1.91-3.491 4.404-6.28 5.732-9.01 0.782-0.768 0.742 0.244 2.049 0 0.191-0.874-0.585-0.78-1.229-0.818 2.252-2.664 5.275-4.556 7.782-6.963-5.462-1.578-8.952 5.749-12.697 8.601-2.556 7.713-13.455 15.381-7.372 24.166 6.56 2.638 10.601-2.597 14.744-4.915 2.354 7.613 5.625 14.309 9.421 20.479-14.665-2.397-30.968-1.167-40.14-9.42-0.344-0.476-0.539-1.099-0.409-2.048-5.94-2.229-8.142-10.984-10.649-17.611-4.392-11.615-8.421-23.919-14.334-32.767 12.668-6.575 31.805-7.306 48.329-10.239 2.994-0.532 6.272-2.1 9.013-0.819 3.11 9.06 7.21 14.83 10.24 24.17zm-27.85-20.89c-8.41 1.756-16.686 3.333-23.755 4.915-2.014 0.45-6.115 0.021-5.734 2.867 9.304-1.751 20.671-4.195 30.717-6.144 3.295-0.638 7.609-1.087 9.831-2.866-3.31-1.66-7.36 0.46-11.06 1.23zm-3.28 6.56c4.099-0.574 11.768-1.044 15.154-3.687-3.99-0.83-12.21 0.77-15.15 3.69zm-26.62 6.14c2.316 0.333 4.577-1.126 6.962-1.638 3.039-0.652 7.407 0.092 8.601-2.867-4.66 0.4-12.96 0.69-15.56 4.51zm9.83-1.23c-2.861 4.1-7.716 6.209-10.649 10.239 5.399-1.975 9.108-5.637 12.288-9.83-0.55-0.13-0.78-0.58-1.64-0.41zm28.67 12.29c-1.001 1.319-2.053 2.588-3.686 3.277-0.842 1.871-2.753 4.333-4.095 6.553-1.188 1.964-4.043 4.927-1.639 6.553 2.899-6.383 7.048-11.52 11.468-16.384h-2.05zm-11.47 9.83c2.512 0.054 2.555-2.359 3.276-4.096-2.67-0.21-2.63 2.29-3.28 4.1z" fill="#D31145"/>
	<path d="m168.36 113.04c-2.222 1.779-6.536 2.228-9.831 2.866-10.046 1.949-21.413 4.393-30.717 6.144-0.381-2.846 3.72-2.417 5.734-2.867 7.069-1.583 15.345-3.159 23.755-4.915 3.7-0.76 7.75-2.88 11.06-1.22z"/>
	<path d="m179.42 113.04c1.869-0.368 2.32 0.682 3.686 0.819-0.7 0.81-3.93 0.68-3.69-0.82z" fill="#00703C"/>
	<path d="m242.49 114.27h1.228c-0.956 4.679-2.93 14.096 0.41 19.25-0.329 0.352-1.121 0.244-1.228 0.819-2.292-0.007-1.324-2.315-1.639-3.687-1.27-5.56-1.65-11.32 1.23-16.38z"/>
	<path d="m202.36 115.91c2.318-0.133 3.165 1.203 5.323 1.229-0.538 0.826-1.343 1.386-2.457 1.638-0.85-1.06-2.4-1.43-2.86-2.87z" fill="#00703C"/>
	<path d="m169.18 117.14c-3.387 2.642-11.056 3.112-15.154 3.687 2.93-2.92 11.15-4.52 15.15-3.69z"/>
	<path d="m199.9 117.14c1.468-0.239 1.245 1.212 1.229 2.458-1.38 0.1-2.12-1.52-1.23-2.46z" fill="#00703C"/>
	<path d="m194.16 119.19c0.036 0.648-0.196 1.562 0.411 1.639-2.275 1.75-6.74 0.371-8.603-0.82 2.51-0.3 5.58-1.96 8.19-0.82z" fill="#00703C"/>
	<path d="m212.18 119.19c2.122 1.7 4.075 3.57 5.733 5.734-4.237 1.497-7.502 3.966-9.829 7.372-0.86-4.88 3.9-9.22 4.1-13.1z" fill="#D31145"/>
	<path d="m142.96 122.46c-1.193 2.959-5.562 2.214-8.601 2.867-2.386 0.512-4.646 1.971-6.962 1.638 2.6-3.82 10.9-4.11 15.56-4.51z"/>
	<path d="m207.68 123.28c0.305 1.26-1.123 0.786-0.818 2.047-0.95 0.13-1.573-0.066-2.049-0.409 0.67-0.83 1.37-1.63 2.87-1.64z" fill="#00703C"/>
	<path d="m183.92 124.1c2.695 0.58 4.299 2.254 7.372 2.457-2.79 1.15-6.73-0.09-7.37-2.46z" fill="#00703C"/>
	<path d="m138.87 126.15c-3.18 4.193-6.889 7.855-12.288 9.83 2.934-4.029 7.788-6.139 10.649-10.239 0.86-0.17 1.09 0.28 1.64 0.41z"/>
	<path d="m217.92 128.61c2.465-1.246 3.274 1.63 6.145 1.229 0.04 3.88-6.2 1.15-6.14-1.23z"/>
	<path d="m190.48 129.84c-0.147 1.256-4.212 2.174-4.098 0 1.81 0.43 3.16-0.81 4.1 0z" fill="#00703C"/>
	<path d="m219.96 133.11c-2.248 1.732-6.02 0.016-6.962-2.047 2.26-0.12 6.73-1.42 6.96 2.05z"/>
	<path d="m118.39 131.07c6.269 7.246 8.197 18.834 11.878 28.67-6.57-6.95-9.51-17.53-11.88-28.67z" fill="#D31145"/>
	<path d="m196.21 132.7c-0.598 2.541-5.926 0.353-7.781 1.638 1.35-1.55 5.56-3.56 7.78-1.64z" fill="#00703C"/>
	<path d="m201.12 132.29h2.459c0.43 1.797-1.385 1.345-1.229 2.867-1.2 0.106-1.26-0.926-2.459-0.819 0.37-0.72 1.67-0.52 1.23-2.05z" fill="#00703C"/>
	<path d="m206.86 132.29c1.095 1.524-1.109 3.245-1.228 4.915-1.94-1.15 1.01-3.31 1.23-4.91z" fill="#D31145"/>
	<path d="m220.38 132.29c2.894 0.604 4.687-0.016 6.554 1.229-0.454 2.003-3.304 1.611-5.734 1.639-0.55-0.68-1.09-1.37-0.82-2.87z"/>
	<path d="m215.46 134.34c1.385 1.43 3.89 0.133 5.325 0.819 0.6 4.64-8.63 1.82-5.32-0.82z"/>
	<path d="m126.17 165.88c-3.093 2.442-10.681-0.242-13.926-1.638-18.916-4.021-33.652-12.221-41.368-27.442 0.33-0.353 1.122-0.243 1.229-0.819 0.477-0.066 0.729 0.09 0.819 0.41 9.096 16.306 27.131 23.81 47.921 27.852 2.11 0.41 4.53-0.77 5.33 1.64z"/>
	<path d="m228.16 137.21c0.473 2.294-6.333 4.158-7.782 1.229 1.16-1.42 5.42-1.56 7.78-1.23z"/>
	<path d="m235.53 136.8c-0.256 3.429-2.976 4.396-6.962 4.096 0.065-0.477-0.091-0.728-0.41-0.819 0.9-3.2 4.68-1.52 7.37-3.28z"/>
	<path d="m217.51 138.44c-0.085 2.646-3.078 2.383-5.735 2.458-0.515-1.124-2.121-1.156-2.048-2.868 2.37-0.28 5.05 0.12 7.78 0.41z"/>
	<path d="m167.95 138.03c-4.42 4.864-8.568 10-11.468 16.384-2.404-1.626 0.45-4.589 1.639-6.553 1.342-2.221 3.253-4.683 4.095-6.553 1.633-0.689 2.685-1.958 3.686-3.277h2.04z"/>
	<path d="m199.08 138.03c1.286-0.193 1.083 1.103 2.048 1.229-0.723 2.375-3.652 7.171-5.324 3.687 1.11-1.61 2.59-2.87 3.27-4.92z"/>
	<path d="m188.43 139.67c-0.551 2.317-4.068 1.666-4.506 4.096-1.157 0.339-1.062-0.577-2.048-0.41 0.16-3 3.5-4.97 6.56-3.69z"/>
	<path d="m195.8 141.3c-1.291 1.984-2.228 4.325-5.732 4.096 0.065-0.477-0.091-0.729-0.41-0.819 1.39-1.56 3.92-5.11 6.14-3.28z"/>
	<path d="m203.58 141.3c0.643 3.298-2.303 6.392-6.145 6.553 1.04-3.18 3.35-5.1 6.14-6.55z"/>
	<path d="m211.77 143.35c-0.298-1.117 0.813-0.824 0.82-1.638 4.3 0.171 10.548 2.001 13.516-0.41 1.078-0.124 1.344 0.567 1.229 1.639 0.844-1.195 2.852-0.962 3.276 0.409 1.682-0.033 3.537-3.068 4.915-0.818-0.848 1.199-1.869 2.225-3.276 2.867 2.872 3.119 3.557-2.237 6.554-1.639 0.983 3.86-3.964 6.649-7.372 4.096-0.002-0.682 0-1.366 0-2.048-2.788 0.467-3.533-1.11-4.506-2.458-1.235 0.268-1.396 1.609-2.457 2.049-2.318-0.003-4.524-0.118-4.917-2.049-1.42 2.31-6.23 1.95-7.78 0z"/>
	<path d="m71.289 143.35c0.662-0.114 0.705 0.388 1.229 0.41 2.723 4.383 7.497 8.78 12.287 11.877 2.537 1.641 6.516 2.08 7.782 5.324-9.81-2.75-15.459-9.661-21.708-15.974-0.174-0.85 0.281-1.08 0.41-1.64z"/>
	<path d="m157.71 143.76c-0.722 1.736-0.765 4.15-3.276 4.096 0.65-1.81 0.61-4.31 3.28-4.1z"/>
	<path d="m186.79 145.4v1.638c-2.1 1-5.792 0.433-6.553-1.229 1.09-3.15 4.06 0.22 6.55-0.41z"/>
	<path d="m67.193 144.58h1.228c-3.618 23.235-9.503 49.581-14.335 72.495-0.888 4.21 0.078 9.451-3.276 12.698 0.145-9.044 3.049-17.649 4.915-26.624 3.936-18.93 6.668-38.557 11.059-57.341-0.116-0.67 0.387-0.72 0.409-1.24z"/>
	<path d="m195.39 147.45c-2.87-0.073-6.294 4.493-7.783 0.819 2.68-0.33 8.18-6.01 7.78-0.82z"/>
	<path d="m204.81 144.99c0.366 0.318 0.925 0.441 1.639 0.411-0.17 5.161-5.528 4.9-5.325 9.42-1.788 1.21-6.518 3.664-7.371 0 1.226-1.567 4.292 0.546 5.323-1.639 0.283-1.647-0.392-2.338-0.408-3.687 3.5-0.05 5.23-1.87 6.15-4.5z"/>
	<path d="m242.9 145.4c4.368 7.617 1.389 17.095 1.228 25.803-1.54-8.12-1.29-18.26-1.23-25.8z" fill="#D31145"/>
	<path d="m222.01 146.63c2.583 1.845 5.489 0.421 8.19 0.819-0.526 2.614-3.572 2.707-6.552 2.867-0.61-1.17-2.25-1.3-1.64-3.69z"/>
	<path d="m117.98 159.33c-2.251 1.465-6.003 0.294-8.191-0.41-7.723-2.488-15.626-6.5-21.708-10.24-0.067-0.476 0.091-0.729 0.41-0.819 0.33-0.284 1.122-0.637 1.228 0 7.71 5.53 18.42 8.07 28.26 11.47z"/>
	<path d="m184.74 149.09c0.279 4.756-10.649 3.2-9.012-0.41 2.45 0.18 6.27 0.96 9.01 0.41z"/>
	<path d="m196.62 149.09c-0.899 3.605-4.089 4.922-8.19 5.325 0.167-0.987-0.748-0.89-0.41-2.049 4.44 0.62 4.88-4.5 8.6-3.28z"/>
	<path d="m215.87 150.32c1.756 2.198 4.17-0.221 5.733 1.229-0.641 2.464-4.601 2.771-6.554 1.638-0.26-1.5 0.28-2.19 0.82-2.87z"/>
	<path d="m208.91 151.95c-0.26 2.713-5.715 7-6.963 2.458 1.977 0.048 4.163-0.647 4.505-3.277 1.41-0.32 1.72 0.46 2.45 0.82z"/>
	<path d="m187.2 153.18c-0.055 3.262-9.369 4.521-7.78 0 3.64 1.26 5.57-1.6 7.78 0z"/>
	<path d="m192.52 154.41c0.565 0.528 0.406 1.779 0.41 2.867-1.582 0.982-7.244 3.431-8.191 0 2.8-0.7 5.58-0.82 7.78-2.87z"/>
	<path d="m208.09 155.64c1.306-0.351 1.266 0.645 2.047 0.819-0.584 2.828-2.744 4.082-4.503 5.734-0.546-0.412-1.525-0.388-1.639-1.229 0.99-2.13 3.7-2.57 4.09-5.32z"/>
	<path d="m201.54 158.1c-1.671 1.448-7.428 6.525-9.011 1.639 3.85 1.55 6.65-5.7 9.01-1.64z"/>
	<path d="m191.71 160.14c0.066 3.002-7.194 4.839-8.191 1.64 2.4-0.66 6.02-2.07 8.19-1.64z"/>
	<path d="m77.022 160.96h1.229c-1.655 12.686-5.333 26.886-7.782 40.14-2.021-0.332-0.902-2.921-0.819-3.686 1.119-10.402 5.687-24.135 6.963-35.224-0.115-0.66 0.387-0.7 0.409-1.23z"/>
	<path d="m229.79 161.78c-0.159 2.843-2.881 3.125-5.732 3.276-0.253-0.976-1.785-0.673-1.229-2.458 2.61 0.4 4.54-1.52 6.96-0.82z"/>
	<path d="m129.45 171.2c-2.211 1.957-6.801 0.556-9.83 0-7.271-1.334-15.252-3.985-20.889-6.553-0.066-0.476 0.09-0.729 0.409-0.819 5.975 1.114 12.885 4.831 20.479 6.144 3.32 0.58 6.87-0.53 9.83 1.23z"/>
	<path d="m188.84 163.83c2.074 3.662-6.962 7.384-7.372 2.457 3.39 0.68 5.2-2.39 7.37-2.46z"/>
	<path d="m214.23 165.47c-0.686 3.326-3.594 8.162-6.964 6.145-2.076 1.252-4.472 4.972-7.373 2.867 0.948-2.465 4.557-2.269 5.325-4.916 4.169 1.513 6.129-1.823 6.963-4.915 1.02-0.07 1.27 0.63 2.05 0.81z"/>
	<path d="m233.89 167.11c0.173 0.856-0.28 1.084-0.41 1.638 2.362 0.452 1.613-2.209 4.097-1.638 1.985 4.907-11.608 6.208-11.469 1.229 4.04 1.1 4.78-2.58 7.78-1.23z"/>
	<path d="m135.18 171.2c1.791 0.665 2.696 2.217 3.686 3.687-0.305 2.29-1.505 3.683-2.867 4.915-0.974 5.36-2.393 12.279-9.011 10.649-3.7-9.7 3.58-15.16 8.19-19.25z" fill="#D31145"/>
	<path d="m191.3 174.48c3.021-0.256 5.582-0.972 6.554-3.277 1.117-0.298 0.824 0.814 1.637 0.819-0.05 3.61-7.13 7.19-8.19 2.46z"/>
	<path d="m240.44 172.43c-0.563 0.527-0.404 1.779-0.41 2.868-1.019 0.063-1.268-0.645-2.047-0.819 0.82-0.69 0.65-2.36 2.46-2.05z" fill="#9C7D0D"/>
	<path d="m220.38 174.48h2.867c-1.899 2.634 2.411 2.092 2.867 3.686-2.692 0.571-3.261-0.067-5.734-0.409-0.01-1.09-0.01-2.19-0.01-3.28z" fill="#9C7D0D"/>
	<path d="m212.59 181.03c1.46 3.819-5.88 10.445-7.373 4.096 1.711-0.092 1.935 0.666 3.277 0 1.72-1.01 0.85-4.61 4.09-4.1z"/>
	<path d="m220.38 182.67c1.957 0.923 3.896 1.61 6.554 0.819-0.053 0.735 0.501 0.864 0.409 1.638-2.113 0.286-4.743 0.434-6.963-0.41v-2.05z" fill="#9C7D0D"/>
	<path d="m172.04 188.41c5.113 0.646 10.535 3.086 11.06 6.963-2.826-0.899-6.079-4.813-10.649-5.325-0.31-0.36-0.43-0.92-0.41-1.63z"/>
	<path d="m125.35 192.91c0.964-0.009 1.206 0.706 2.458 0.409-2.554 1.406-1.396 6.523-1.639 10.24-1.55-2.66-0.38-7.91-0.82-10.65z" fill="#D31145"/>
	<path d="m177.78 193.32c1.766 1.417 5.145 2.798 4.096 5.735-1.48-1.6-4.96-3.14-4.1-5.74z"/>
	<path d="m206.45 194.55c0.538 0.145 0.645 0.721 1.229 0.818-0.571 0.56-2.021 0.884-2.457 0.41-0.12-0.95 1.18-0.46 1.23-1.23z" fill="#9C7D0D"/>
	<path d="m165.08 194.96c0.989 6.932 5.597 10.243 9.422 14.336-3.269 2.676-6.104-4.863-8.192-7.373-1.64-1.227-2.649-3.084-2.867-5.734-0.398-0.011-0.317-0.5-0.409-0.819 0.48-0.35 1.1-0.55 2.05-0.42z"/>
	<path d="m193.34 194.96c3.512 0.719 5.211 3.253 9.011 3.687-0.461 2.236 0.675 2.875 1.639 3.686 4.062 13.903 0.911 28.867 0.407 44.645-0.623 19.556 9.416 37.988 7.783 57.751-0.842 10.176-5.23 19.132-7.373 27.85-2.365 9.631-7.06 16.92-11.877 24.985-5.291 8.855-9.663 15.527-18.021 21.297-2.464-2.783-2.054-6.385-2.869-9.828-2.512-10.633-6.691-20.316-9.829-30.31-3.264-10.394-5.617-20.864-6.964-32.767-0.601-5.321-0.854-10.821-1.637-16.382-0.709-5.043-2.045-10.187-2.458-15.564-0.94-12.201-0.217-22.965-1.229-35.224 13.639-2.653 17.777-14.254 26.213-23.347 3.073-3.312 5.932-6.133 8.602-9.419 3.096-3.813 5.68-7.233 8.191-11.06h0.42zm7.38 12.29c1.975 20.297-7.283 46.351 3.276 61.437-1.419-9.067-4.464-17.834-3.687-28.67 0.769-10.743 3.834-22.289 1.638-33.585-0.523-0.023-0.568-0.526-1.228-0.41v1.22zm-7.79 15.97c0.031 8.843 0.087 17.663 2.866 23.756 1.02-6.495-3.664-17.649-0.408-25.394-0.525-0.023-0.568-0.525-1.23-0.41-0.48 0.6-0.51 1.67-1.23 2.04zm-33.58 50.79c0.193 1.617-1.951 3.654 0 4.505 3.69-4.489-0.736-9.08 0-15.564 1.151-10.152 4.184-20.025 6.552-27.442h-1.228c-3.99 11.25-8.81 25.06-5.32 38.49zm-4.51-10.24c1.088-3.146 1.796-6.672 2.049-10.65h-1.229c-0.6 2.73-2.85 8-0.82 10.65zm36.46 26.62c-5.491 4.137-13.815 7.582-20.479 9.829-2.339 0.79-6.544 0.117-7.372 3.279 6.319-1.88 13.021-3.666 18.841-6.146 3.81-1.623 8.266-3.776 10.649-6.963h-1.64zm-15.16 14.75c3.7-0.265 8.333-3.134 11.058-5.735-4.63 0.97-7.78 3.42-11.06 5.74zm-5.73 29.08c7.032 0.348 13.115-3.846 18.842-6.552 1.752-0.828 4.21-0.582 4.914-2.868-7.16 2.26-15.73 6.65-23.75 9.42zm11.05 2.45c5.238-1.861 10.259-3.94 13.927-7.374-0.087-0.457-0.455-0.636-0.819-0.817-3.29 3.56-11.26 4.55-13.11 8.19zm18.44-3.27c-0.021 0.523-0.524 0.566-0.41 1.228-2.673 5.115-4.377 12.273-6.962 17.613-1.309 2.702-5.812 5.882-2.866 8.19 4.846-8.122 8.447-17.49 11.877-27.031h-1.64zm-34 11.46c1.95 4.805 4.748 10.145 6.144 15.975 0.833 3.479 0.149 7.696 2.869 10.239 0.106-0.576 0.897-0.467 1.228-0.819-3.121-9.029-4.347-19.954-9.42-27.032 0 0.81-1.12 0.52-0.82 1.63zm11.47 15.98c-1.075-2.201-1.261-5.291-2.456-7.372h-1.23c0.8 2.89 0.2 7.17 3.69 7.37z" fill="#D31145"/>
	<path d="m133.14 198.24c0.476-0.066 0.729 0.092 0.818 0.41 3.545 8.334 3.747 20.009 10.24 25.394 1.764 1.104 4.494 1.242 5.324 3.276-3.199 3.332-6.956-2.305-9.421-3.686-4.62-7.16-7.1-17.49-6.96-25.39z"/>
	<path d="m200.72 206.02c0.659-0.117 0.704 0.387 1.228 0.41 2.196 11.296-0.869 22.842-1.638 33.585-0.777 10.836 2.268 19.603 3.687 28.67-10.56-15.086-1.302-41.14-3.276-61.437v-1.23z"/>
	<path d="m141.33 211.75h1.228c1.091 4.918 2.531 9.485 7.373 10.649 0.085 1.417 0.582 1.931-0.41 2.867-4.18-3.05-8.1-6.37-8.19-13.52z"/>
	<path d="m146.65 214.21h0.82c1.157 1.435 2.759 2.428 3.686 4.096-2.63 1.27-4.32-1.61-4.51-4.1z"/>
	<path d="m66.374 215.44h1.228c0.174 6.999-3.131 16.881-4.505 25.394-0.465 2.878 0.615 7.069-2.457 8.19-0.277-7.259 2.905-16.561 4.505-25.393 0.508-2.8 0.073-5.7 1.229-8.19z"/>
	<path d="m194.16 221.17c0.662-0.115 0.705 0.387 1.23 0.41-3.256 7.744 1.428 18.898 0.408 25.394-2.779-6.093-2.835-14.913-2.866-23.756 0.72-0.36 0.75-1.43 1.23-2.04z"/>
	<path d="m232.66 230.59c14.062 10.117 27.949 27.995 22.116 51.606-10.48-14.09-19.66-29.48-22.12-51.61zm3.69 7.37c6.164 6.695 14.533 16.047 15.974 27.031 0.455 3.464-1.256 7.48 1.638 8.603 1.738-15.127-7.903-29.125-17.202-37.271-0.13 0.56-0.59 0.79-0.41 1.64z" fill="#A99A6F"/>
	<path d="m220.79 235.1h1.229c1.124 3.819 3.708 8.265 4.096 11.468-3.26-2.11-4.85-7.96-5.33-11.47z"/>
	<path d="m164.67 235.51h1.228c-2.368 7.417-5.4 17.29-6.552 27.442-0.736 6.484 3.69 11.075 0 15.564-1.951-0.851 0.193-2.888 0-4.505-3.49-13.42 1.33-27.23 5.32-38.49z"/>
	<path d="m236.76 236.33c9.299 8.146 18.94 22.145 17.202 37.271-2.894-1.122-1.183-5.139-1.638-8.603-1.44-10.984-9.81-20.336-15.974-27.031-0.18-0.86 0.28-1.09 0.41-1.64z"/>
	<path d="m35.655 250.66c-2.022 25.264 13.912 39.21 31.128 47.92-0.052 0.733 0.501 0.863 0.41 1.637 6.495 1.796 12.214 6.016 18.84 8.193 4.839 1.591 10.211 1.396 14.745 4.095-3.443 3.337-8.413-1.784-13.106-1.229-26.437-11.423-54.921-22.84-54.884-59.388 0.723-0.37 1.269-0.917 1.639-1.639 0.328 0.23 0.662 0.44 1.226 0.42z"/>
	<path d="m155.66 253.12h1.229c-0.253 3.979-0.961 7.504-2.049 10.65-2.03-2.65 0.22-7.92 0.82-10.65z"/>
	<path d="m49.991 254.35c0.351 14.124 7.69 22.516 15.973 29.081 1.819 1.442 4.822 2.482 5.325 5.324-3.068 1.591-3.975-2.226-6.553-2.457-7.945-8.303-16.921-15.572-17.202-31.538-0.067-0.477 0.09-0.729 0.409-0.818 0.965-0.99 0.762 0.62 2.048 0.42z"/>
	<path d="m45.076 260.9c0.476-0.067 0.728 0.089 0.819 0.407 5.715 20.499 21.297 31.13 39.729 38.909 2.341 0.527 5.09 0.646 6.144 2.459-2.385 2.205-7.042-1.217-9.831-2.459-7.062-3.139-14.49-7.032-20.478-11.057-2.23-2.686-4.545-5.285-7.373-7.373-3.493-6.21-9.877-11.68-9.01-20.89z"/>
	<path d="m29.922 265.41h1.638c1.306 10.162 6.795 16.142 11.468 22.937-4.292-1.252-8.57-7.76-11.059-13.517-1.128-2.609-1.497-5.718-2.458-8.191-0.115-0.67 0.388-0.71 0.411-1.23z"/>
	<path d="m233.07 269.91c-2.11 4.007-7.302 5.381-10.649 8.192-0.942 0.791-2.777 2.908-5.325 2.457 4.81-4.06 10.2-7.55 15.97-10.65z"/>
	<path d="m237.58 271.14c-1.305 3.474-5.24 4.316-7.784 6.552-0.813 0.657-1.715 2.585-3.275 1.229 2.209-3.389 7.059-4.14 9.011-7.781h2.05z"/>
	<path d="m13.948 282.2c-1.174 4.016-2.05 8.327-4.096 11.469 0.109 3.209-1.895 6.02-2.867 9.011-0.73 2.247-0.116 6.473-3.277 6.964 1.932-8.454 5.703-18.593 8.602-27.443h1.638z"/>
	<path d="m20.501 283.43h0.819c1.894 0.982 1.748 3.007 2.458 4.506 9.019 19.03 27.429 30.26 47.511 38.499 2.788-0.058 4.516 0.945 6.144 2.049-0.348 2.089-3.367 0.696-4.505 0.41-11.74-2.96-23.237-12.001-33.176-17.613-7.773-7.94-15.565-15.85-19.251-27.86z"/>
	<path d="m250.27 289.16c-1.942 4.336-4.41 8.15-9.01 9.829 1.594-4.276 6.231-5.51 7.781-9.829h1.23z"/>
	<path d="m192.93 290.39c-2.384 3.187-6.84 5.34-10.649 6.963-5.819 2.479-12.521 4.266-18.841 6.146 0.828-3.162 5.033-2.489 7.372-3.279 6.664-2.247 14.988-5.692 20.479-9.829h1.64z"/>
	<path d="m254.78 292.44c-0.669 1.587-2.252 5.613-5.324 6.144 1.16-2.66 2.16-5.47 5.32-6.14z"/>
	<path d="m148.29 321.11c-0.463 2.299-3.444 1.148-4.915 1.229-4.616 0.255-11.295 0.387-16.383 0-30.666-2.326-59.173-11.804-78.23-26.623v-1.228c0.333-0.078 0.408-0.412 0.819-0.409 0.349-0.075 0.387 0.159 0.411 0.409 12.469 9.546 27.935 16.654 46.692 20.89 6.004 1.354 12.218 3.364 18.432 4.094 10.18 1.2 22.59 0.91 33.17 1.64z"/>
	<path d="m214.64 296.12c6.196 3.226 11.4 7.442 18.023 10.24-4.979 7.172-14.642 9.661-20.89 15.563 4.785-0.562 8.833-3.5 12.698-6.145 3.694-2.526 7.001-6.486 11.877-7.371-7.12 7.35-16.565 12.378-26.623 16.792 2.53-7.93 6.09-19.01 4.91-29.08z" fill="#A99A6F"/>
	<path d="m260.51 312.51c-1.172-0.812-0.789-2.907-1.229-4.504-1.119-4.08-4.088-8.365-4.095-11.879 4.971 2.402 3.812 10.934 6.962 15.154 0.32 1.04-1.55 1.92-1.63 1.23z"/>
	<path d="m187.2 299.4c-2.725 2.602-7.357 5.471-11.058 5.735 3.28-2.32 6.43-4.77 11.06-5.74z"/>
	<path d="m151.98 309.23c-1.327 2.365-5.227 1.903-8.191 2.047-14.405 0.697-30.447-1.663-41.777-4.096-0.217-0.329-0.428-0.665-0.41-1.229 14.71 2.39 33.39 4.81 50.38 3.28z"/>
	<path d="m25.006 306.78c0.662-0.115 0.706 0.387 1.229 0.409-1.929 10.229-6.132 21.716-9.42 31.948-2.397-1.616 0.075-5.05 0.819-7.373 0.879-2.743 1.963-5.466 2.048-8.191 0.933-0.843 1.414-2.135 1.229-4.097 2.21-3.4 2.68-8.52 4.095-12.7z"/>
	<path d="m194.16 324.8c-0.704 2.286-3.162 2.04-4.914 2.868-5.727 2.706-11.81 6.899-18.842 6.552 8.02-2.77 16.59-7.16 23.75-9.42z"/>
	<path d="m194.57 328.48c0.364 0.182 0.732 0.36 0.819 0.817-3.668 3.434-8.688 5.513-13.927 7.374 1.85-3.64 9.82-4.63 13.11-8.19z"/>
	<path d="m156.48 336.26c-2.256 1.993-5.764 2.221-9.011 2.458-19.566 1.424-41.678-1.156-56.522-4.507-0.066-0.475 0.09-0.729 0.409-0.817 19.333 3.15 42.503 4.53 65.123 2.87z"/>
	<path d="m201.54 333.4c-3.43 9.541-7.031 18.909-11.877 27.031-2.945-2.309 1.558-5.488 2.866-8.19 2.585-5.34 4.289-12.498 6.962-17.613-0.114-0.661 0.39-0.704 0.41-1.228h1.64z"/>
	<path d="m166.72 343.23c5.073 7.078 6.299 18.003 9.42 27.032-0.33 0.353-1.121 0.243-1.228 0.819-2.72-2.543-2.036-6.76-2.869-10.239-1.396-5.83-4.193-11.17-6.144-15.975-0.3-1.11 0.82-0.82 0.82-1.63z"/>
	<path d="m157.71 346.1c0.538 0.144 0.644 0.72 1.229 0.818-0.299 14.79 3.063 28.363 1.228 41.368-1.484-1.885-1.44-5.293-1.638-8.602-0.344-5.763-0.032-13.723-0.408-21.298-0.22-4.42-2.05-9.35-0.41-12.29z"/>
	<path d="m173.68 353.47h1.23c1.195 2.081 1.381 5.171 2.456 7.372-3.49-0.2-2.89-4.48-3.69-7.37z"/>
	<path d="m225.29 43.825c-0.541 1.233-2.058 1.493-3.276 2.048 0.74-1.038 2.01-1.54 3.28-2.048z" fill="#00703C"/>
	<path d="m174.91 44.235c1.523 0.25 2.772 0.776 3.275 2.047-0.58-1.19-2.92-0.618-3.27-2.047z" fill="#00703C"/>
	<path d="m180.24 45.054c2.118 0.208 5.288 2.898 6.961 4.916-4.59 0.632-4.38-3.54-6.96-4.916z" fill="#00703C"/>
	<path d="m230.2 60.208c-0.935 2.208-6.266 3.56-9.829 4.505 1.52-3.266 6.43-3.126 9.83-4.505z" fill="#00703C"/>
	<path d="m178.6 61.847c2.069 0.121 8.442-0.527 9.831 1.639-2.03 1.408-6.85-1.29-9.83-1.639z" fill="#00703C"/>
	<path d="m190.07 65.533c1.491 0.022 4.275 2.617 2.047 3.686 1.77-2.633-2.22-1.474-2.05-3.686z" fill="#00703C"/>
	<path d="m213.41 68.4c0.844 0.607-0.917 2.06-2.457 1.638 0.49-0.879 1.78-0.955 2.46-1.638z" fill="#00703C"/>
	<path d="m232.25 74.134c0.604-1.97-2.354-0.376-2.049-2.047 2.071-0.661 4.447-1.014 6.554-1.638-1.948 4.604-6.383 6.722-13.105 6.553 1.57-3.011 8.15 0.521 8.61-2.868z" fill="#00703C"/>
	<path d="m238.81 72.496c-1.118 4-3.202 12.083-3.277 17.203h-1.638c-0.348 2.258 0.559 3.264 1.638 4.095-1.401 8.068 2.936 18.904-1.638 22.527-4.88-3.448-8.861-7.794-13.517-11.468 1.328-4.653 3.165-8.467 5.734-12.697 1.36 0.505 1.855 2.33 3.685 1.229 1.173-4.174 3.245-9.468 5.735-13.516 0.413-1.232-0.911-0.726-1.638-0.819 0.92-2.917 3.4-4.253 4.93-6.551zm-13.93 27.442c3.577-0.656 6.23-2.235 8.193-4.506-2.88-0.128-6.66 1.957-8.19 4.506z" fill="#D31145"/>
	<path d="m219.15 80.278c0.892 0.788-2.045 1.209-3.277 1.229 0.59-1.201 2.8-1.02 3.28-1.229z" fill="#00703C"/>
	<path d="m231.44 82.735c0.237 0.721-1.405 6.461-3.687 7.373 0.99-2.691 2.42-4.948 3.69-7.373z" fill="#D31145"/>
	<path d="m197.85 86.832c0.06-0.914 1.031 0.531 2.047 0 0.125 1.08-0.854 1.056-1.638 1.229 0.03-0.583 0.07-1.161-0.41-1.229z" fill="#00703C"/>
	<path d="m254.78 107.31c-2.636 1.477-2.591 4.955-3.686 7.782-1.763 4.553-4.871 9.375-4.915 13.925 4.949-3.106 3.435-12.675 7.781-16.383-2.448 8.063-4.821 16.203-7.371 24.165-2.127 0.876-0.468 5.54-3.687 5.325-4.399-5.841-6.23-14.25-14.745-15.974 1.057-2.492 3.082-4.018 4.916-5.733 1.623 0.56 1.285 3.083 3.685 2.867 1.855-1.343-0.07-3.717-1.229-4.506 5.518-6.906 14.202-10.646 22.527-14.745-1.321 2.774-2.281 5.91-4.097 8.192-1.45-1.48 2.9-2.81 0.82-4.92zm-13.52 23.35c0.314 1.371-0.653 3.68 1.639 3.687 0.106-0.575 0.898-0.467 1.228-0.819-3.34-5.154-1.366-14.571-0.41-19.25h-1.228c-2.88 5.05-2.5 10.81-1.23 16.38z" fill="#D31145"/>
	<path d="m214.23 109.36c0.889-0.154-1.267 3.24-3.688 2.458-0.07-2.13 2.92-1.19 3.69-2.46z" fill="#00703C"/>
	<path d="m231.44 160.14c0.655 3.82 6.796 1.131 7.782-0.818 0.297-1.118-0.814-0.825-0.821-1.639-2.44 0.71-3.5 2.79-6.96 2.46-0.366-2.004 2.17-1.105 1.639-3.276-0.079-0.332-0.412-0.409-0.41-0.819-2.248-0.064-2.219 2.151-4.096 2.458-1.499-0.14-1.53-1.747-2.868-2.048-2.368 1.362-4.817 0.573-6.145-1.229-1.918 0.654-3.759 1.751-6.143 0.819 0.297-2.072-1.548-2.002-1.229-4.096 0.062-0.992 3.733-1.948 1.229-2.867 1.879-0.072 4.999 1.486 7.373-0.41 0.339-1.157-0.578-1.061-0.41-2.048-1.67-0.53-4.275 2.529-4.505-0.409h-2.048c-1.79 0.353 0.22 2.132-0.819 2.867-2.991 0.317-2.809-4.519-1.229-5.324-0.31-1.055-1.306-1.423-2.866-1.229-0.769-0.735-0.489-2.514-1.639-2.868 1.716-8.932 11.463-15.579 20.889-10.649 0.197 1.29-1.878 0.307-2.048 1.228-0.194 3.107 4.522 1.257 4.915 0 1.197 0.852 2.787 1.309 3.277 2.868-2.484-1.162-3.575 1.627-6.964 0.819 0.399 4.114 6.081 1.176 7.374 0 2.391 4.434 5.621 8.03 5.322 15.154-1.493-0.266-2.182 0.277-2.866 0.819-0.471 1.698 0.861 1.597 0.819 2.867-1.128 0.491-1.711 0.89-2.868 0.41-0.197-1.291 1.259-0.927 0.82-2.458-4.963 0.454-8.43 0.961-13.926 1.229 1.146 5.157 7.371 0.127 10.649 1.638 1.461 0.449 1.623 2.2 3.276 2.458 1.563-0.211 3.069-0.48 3.687-1.638 0.946 1.51 0.142 4.772 0.408 6.963-2.74 0.4-3.812 2.467-7.781 1.638 0.067 0.477-0.09 0.728-0.41 0.819 1.474 3.162 6.813 1.697 8.191-0.819 0.949 1.917 0.143 5.593 0.41 8.191-2.432-0.956-4.707 1.492-6.963 2.048 0.274 1.592 2.237 1.949 3.687 1.229-0.474 1.573-3.589 0.507-5.325 0.819-0.296 1.798 0.881 2.123 2.049 2.458-0.416 1.864-2.943 1.107-4.098 0.409-0.331 0.078-0.406 0.411-0.817 0.41-0.525 2.436 2.146 1.675 2.048 3.686-1.026-0.07-0.995 0.918-1.638 1.229-2.528-0.274-0.348-2.713-2.868-2.867 0.504-1.217 1.867-1.57 0.819-3.276 1.537-0.238 2.726-0.825 3.276-2.047-0.217-0.33-0.426-0.666-0.41-1.229-2.476-0.229-3.399 2.129-5.732 0.819 0.13-1.371 2.339-0.665 2.457-2.048-0.214-0.606-0.607-1.032-0.819-1.638-2.008 0.314-2.848 1.795-5.734 1.229 0.438-1.53-1.016-1.167-0.82-2.457 3.269 0.4 4.915-0.821 6.145-2.458-1.534-1.305-5.136-0.52-6.552 0.409-1.912-0.545-1.427-3.489-2.869-4.505 1.051 0.02 4.005 0.825 5.735-0.41v-2.048c-2.418 1.649-5.671-2.011-5.735 1.229-0.807-0.695-1.098-1.905-1.229-3.277 2.349 0.3 3.02-1.078 4.915-1.229 0.15 2.423 3.932 1.582 5.734 1.229 0.43 2.17 3.81 1.74 5.75 1.25zm-11.88-16.79c0.393 1.931 2.599 2.045 4.917 2.049 1.062-0.44 1.222-1.781 2.457-2.049 0.973 1.348 1.718 2.925 4.506 2.458 0 0.683-0.002 1.366 0 2.048 3.408 2.553 8.355-0.236 7.372-4.096-2.997-0.599-3.682 4.757-6.554 1.639 1.407-0.642 2.429-1.668 3.276-2.867-1.378-2.25-3.233 0.786-4.915 0.818-0.425-1.371-2.433-1.604-3.276-0.409 0.115-1.072-0.15-1.763-1.229-1.639-2.968 2.411-9.216 0.581-13.516 0.41-0.007 0.814-1.118 0.521-0.82 1.638 1.53 1.95 6.34 2.31 7.77 0zm-6.56-12.28c0.942 2.063 4.714 3.779 6.962 2.047-0.23-3.48-4.7-2.18-6.96-2.05zm11.06-1.23c-2.87 0.401-3.68-2.475-6.145-1.229-0.06 2.38 6.18 5.11 6.14 1.23zm-2.86 5.32c2.431-0.028 5.28 0.365 5.734-1.639-1.867-1.245-3.66-0.625-6.554-1.229-0.27 1.5 0.27 2.19 0.82 2.87zm-0.41 0c-1.436-0.687-3.94 0.611-5.325-0.819-3.31 2.64 5.92 5.46 5.33 0.82zm-0.41 3.28c1.449 2.93 8.255 1.066 7.782-1.229-2.36-0.33-6.62-0.19-7.78 1.23zm7.78 1.64c0.319 0.091 0.476 0.342 0.41 0.819 3.986 0.301 6.706-0.667 6.962-4.096-2.69 1.76-6.47 0.08-7.37 3.28zm-18.43-2.05c-0.073 1.712 1.533 1.744 2.048 2.868 2.657-0.074 5.65 0.189 5.735-2.458-2.74-0.29-5.42-0.69-7.79-0.41zm13.92 12.29c2.979-0.16 6.025-0.253 6.552-2.867-2.701-0.398-5.607 1.026-8.19-0.819-0.61 2.39 1.03 2.52 1.64 3.69zm-8.6 2.86c1.953 1.132 5.913 0.826 6.554-1.638-1.563-1.451-3.978 0.969-5.733-1.229-0.54 0.69-1.08 1.38-0.82 2.87zm7.78 9.42c-0.557 1.785 0.976 1.482 1.229 2.458 2.852-0.151 5.573-0.434 5.732-3.276-2.42-0.7-4.35 1.22-6.96 0.82zm3.28 5.74c-0.14 4.979 13.454 3.678 11.469-1.229-2.483-0.571-1.734 2.09-4.097 1.638 0.13-0.554 0.583-0.782 0.41-1.638-3-1.35-3.74 2.33-7.78 1.23z" fill="#9C7D0D"/>
	<path d="m231.02 24.576c3.211 0.315 6.672-6.14 11.468-6.963 0.528 2.44-1.044 2.778-1.229 4.505-2.131-0.889-2.986 0.106-4.506 0.819-0.983 0.887 1.552 2.233 0.41 3.277-2.231 1.863-4.179 4.014-6.964 5.324-0.109 1.391 0.317 3.32-0.41 4.097 4.885-1.04 9.944-6.094 14.336-4.916-0.588 1.46-3.079 1.016-3.686 2.458 1.416 1.79 2.515-0.681 4.097 0.41-3.57 4.896-10.38 6.549-15.154 10.239 2.244 0.599 5.766-1.054 7.371-2.458 2.015 1.056 2.928 0.669 5.325 1.229 0.536 2.174-2.282 0.995-2.457 2.458 4.146-1.177 7.359-3.288 10.647-5.324 2.1 5.139-7.757 4.95-9.829 8.602 0.208 2.327 2.573-0.047 3.275 1.638-3.032 3.655-11.332 2.047-13.926 6.144-1.405-0.043-2.941-0.212-3.275 0.819 6.459 1.207 12.808-7.123 18.84-3.687-0.666 1.519-3.094 1.274-4.505 2.048-0.967 0.347 1.13 1.008 0.41 2.458-1.242 0.396-2.182 1.095-3.276 1.638 1.094 3.401 7.637-3.224 8.602 1.229-8.275 2.236-16.604 4.421-23.347 8.192 1.833 3.591 8.587 0.167 10.239-1.639 10.017 2.14 11.39-6.853 23.347-5.325 11.503 1.47 20.194 11.374 18.841 22.117-1.02 8.082-7.47 11.949-13.107 16.792-7.646 13.708-10.551 29.625-16.793 44.645 3.468 12.58 1.712 28.657-3.276 38.09-1.925 3.64-3.335 5.196-5.324 8.191-0.812 1.223-0.969 2.894-1.639 3.686-1.181 1.398-3.542 2.317-4.915 3.687-1.572 1.569-2.514 3.15-3.686 4.915 0.738 8.273 3.61 14.411 4.506 22.527 24.153 13.8 29.791 46.118 41.776 72.086 2.996 11.719 2.099 24.204-1.639 34.814-21.105 39.435-72.478 58.568-131.06 60.616-12.273 0.431-26.694-0.423-39.319-2.456-41.407-6.668-86.007-25.36-98.3-59.799-2.76-7.734-3.754-18.525-2.047-27.852 0.648-3.542 2.583-6.575 3.686-9.829 3.896-11.502 6.908-23.2 10.24-34.406 6.986-16.222 18.105-28.312 32.767-36.861 5.564-29.522 11.743-58.432 16.383-88.878 8.778-22.351 24.139-40.3 47.101-47.101 0.3-16.018 11.999-33.526 32.357-31.948 1.316 0.36 0.562-1.35 1.638-1.229 2.986 1.618 5.76 3.147 9.829 1.639-4.438-3.343-11.535-4.027-14.744-8.601 2.637-0.72 6.621 0.521 8.603 0.819 0.624-2.18-4.902-0.965-2.867-4.916 4.085 0.556 6.707 2.578 11.058 2.868-2.555-2.223-5.775-3.782-8.19-6.144-0.177-1.814 2.387-0.889 2.457-2.458-2.728-1.61-7.691-2.813-6.963-6.553 9.25 2.082 14.214 8.451 26.212 7.782-4.769-4.923-11.074-8.312-19.659-9.42-0.125-2.482 4.171-1.674 5.735-1.229 0.297-1.4-4.04-1.687-3.687-4.505 2.606-1.177 4.236 1.256 5.325 2.867 5.909 4.329 12.714 7.764 20.478 10.24-5.292-5.495-13.959-11.161-22.937-14.335 2.656-3.611 7.148 0.579 9.83 2.048 3.458 1.894 6.644 4.349 9.422 5.733-4.48-5.487-10.193-9.74-14.747-15.153-0.194-1.562 1.897-0.835 1.229-2.868 2.781 0.601 3.414 3.455 4.915 5.325 6.641 8.275 14.896 15.218 21.708 23.346-4.585-8.932-11.479-15.552-16.793-23.755-0.977-0.662-1.807-1.471-2.866-2.047-0.585-3.562-7.795-5.957-4.506-9.421 3.523 1.664 3.656 6.72 8.19 7.372 6.65 10.962 15.133 20.091 21.709 31.127 1.545-15.414-3.352-29.704-2.048-43.415 2.076 0.013 2.197 2.438 2.456 3.687 2.413 11.654 1.281 27.828 2.868 40.139 3.842 0.876 5.519-1.942 7.781-4.505 4.688-5.31 10.063-12.603 15.154-17.611 2.592-3.102 4.805-6.622 7.373-9.83 2.354-2.941 4.979-6.552 8.602-8.192 0.097 3.221-2.707 5.876-4.505 8.192-7.068 9.096-16.419 17.772-22.937 27.851 14.745-4.505 15.291-23.21 29.897-27.851-0.631 5.921-7.631 7.657-8.191 12.286 0.36-0.831 1.79 0.172 0.81 0.402zm-5.32 134.34c-1.803 0.353-5.584 1.194-5.734-1.229-1.896 0.151-2.566 1.529-4.915 1.229 0.131 1.372 0.422 2.582 1.229 3.277 0.064-3.241 3.317 0.42 5.735-1.229v2.048c-1.73 1.235-4.685 0.43-5.735 0.41 1.442 1.016 0.957 3.959 2.869 4.505 1.416-0.929 5.018-1.714 6.552-0.409-1.229 1.636-2.876 2.858-6.145 2.458-0.195 1.29 1.259 0.927 0.82 2.457 2.887 0.566 3.727-0.915 5.734-1.229 0.212 0.606 0.605 1.032 0.819 1.638-0.118 1.383-2.327 0.677-2.457 2.048 2.333 1.31 3.257-1.048 5.732-0.819-0.016 0.564 0.193 0.899 0.41 1.229-0.551 1.222-1.739 1.809-3.276 2.047 1.048 1.707-0.315 2.059-0.819 3.276 2.521 0.154 0.34 2.593 2.868 2.867 0.643-0.312 0.611-1.299 1.638-1.229 0.099-2.01-2.573-1.25-2.048-3.686 0.411 0.001 0.486-0.332 0.817-0.41 1.154 0.698 3.682 1.456 4.098-0.409-1.168-0.335-2.345-0.66-2.049-2.458 1.736-0.312 4.852 0.754 5.325-0.819-1.449 0.719-3.412 0.363-3.687-1.229 2.256-0.556 4.531-3.004 6.963-2.048-0.268-2.598 0.539-6.274-0.41-8.191-1.378 2.516-6.718 3.981-8.191 0.819 0.32-0.091 0.478-0.342 0.41-0.819 3.97 0.829 5.041-1.238 7.781-1.638-0.267-2.19 0.538-5.453-0.408-6.963-0.617 1.158-2.123 1.427-3.687 1.638-1.653-0.258-1.815-2.008-3.276-2.458-3.278-1.511-9.503 3.519-10.649-1.638 5.496-0.268 8.963-0.775 13.926-1.229 0.438 1.531-1.018 1.167-0.82 2.458 1.157 0.479 1.74 0.081 2.868-0.41 0.042-1.271-1.29-1.169-0.819-2.867 0.685-0.542 1.373-1.084 2.866-0.819 0.299-7.124-2.932-10.72-5.322-15.154-1.293 1.176-6.975 4.114-7.374 0 3.389 0.808 4.479-1.981 6.964-0.819-0.49-1.559-2.08-2.016-3.277-2.868-0.393 1.257-5.109 3.107-4.915 0 0.17-0.921 2.245 0.062 2.048-1.228-9.426-4.93-19.173 1.717-20.889 10.649 1.149 0.354 0.87 2.132 1.639 2.868 1.561-0.195 2.557 0.173 2.866 1.229-1.579 0.805-1.762 5.641 1.229 5.324 1.039-0.734-0.971-2.514 0.819-2.867h2.048c0.229 2.938 2.835-0.121 4.505 0.409-0.168 0.987 0.749 0.891 0.41 2.048-2.374 1.896-5.494 0.338-7.373 0.41 2.505 0.919-1.167 1.875-1.229 2.867-0.319 2.094 1.525 2.024 1.229 4.096 2.384 0.932 4.225-0.165 6.143-0.819 1.327 1.802 3.776 2.591 6.145 1.229 1.338 0.301 1.369 1.908 2.868 2.048 1.877-0.306 1.848-2.522 4.096-2.458-0.002 0.411 0.331 0.487 0.41 0.819 0.531 2.171-2.005 1.272-1.639 3.276 3.464 0.324 4.521-1.758 6.961-2.457 0.007 0.814 1.118 0.521 0.821 1.639-0.986 1.949-7.127 4.638-7.782 0.818-1.94 0.46-5.32 0.89-5.74-1.25zm-12.29-113.87c4.806-3.795 12.963-4.239 14.745-11.058-0.091-0.32-0.342-0.477-0.819-0.41-3.96 4.234-11.71 6.861-13.93 11.468zm-56.11-4.096c0.497-3.234-3.377-4.259-5.324-3.686 1.69 1.306 2.98 3.028 5.32 3.686zm22.94-1.638c-1.898-0.568-4.311-2.779-6.145-2.048 1.44 1.019 3.68 3.396 6.14 2.048zm36.45-0.409c0.287-1.08 1.864-0.866 2.049-2.048-0.89 0.228-3.14 1.193-2.05 2.048zm-40.55 2.866c-3.06-1.038-8.234-2.137-11.468-1.638 3.46 1.728 7.08 3.974 11.47 1.638zm-18.02 0c3.535 1.38 5.833 3.996 9.829 4.916-0.305-1.261 1.123-0.788 0.819-2.048-3.2-0.855-7.33-4.823-10.65-2.868zm63.89 4.097c1.219-0.555 2.735-0.815 3.276-2.048-1.27 0.507-2.54 1.009-3.28 2.048zm-43.82 0.408c-0.503-1.271-1.752-1.797-3.275-2.047 0.34 1.429 2.68 0.857 3.27 2.047zm9.01 3.687c-1.673-2.017-4.843-4.708-6.961-4.916 2.58 1.377 2.37 5.549 6.96 4.916zm48.33-4.095c1.271 1.183 2.687 0.66 3.277-0.82-1.44-0.068-2.63 0.109-3.28 0.82zm-66.35 2.047c1.618 1.665 7.12 1.611 9.42 1.229-2.62-0.931-7.76-5.545-9.42-1.229zm58.16 1.638c2.308-1.243 5.033-2.066 6.964-3.686-2.89 0.389-8.17 0.559-6.96 3.686zm-37.27-1.228c1.579 0.604 2.285 2.084 4.094 2.458-0.12-2.012-2.93-3.996-4.09-2.458zm33.17 0.409c-0.113 0.935 0.1 1.54 0.819 1.639-0.245-0.729 1.2-1.701 0-2.047-0.09 0.318-0.34 0.475-0.82 0.408zm-10.65 6.144c2.946-1.149 6.884-1.307 9.01-3.277-2.99-2.705-6.77 1.456-9.01 3.277zm-14.74 2.457c2.117-0.75 3.922-1.812 5.734-2.867-2.79 0.079-5.13 0.604-5.73 2.867zm-34-0.819c2.279 1.271 4.563 2.535 8.19 2.458-1.62-2.474-3.703-4.488-8.19-4.096v1.638zm20.48 2.867c-3.381-1.262-8.204-3.26-11.878-2.867 1.51 3.135 7.28 4.19 11.88 2.867zm48.74-0.818c1.628 0.661 4.243-1.209 5.322-2.458-1.71 0.873-4.22 0.956-5.32 2.458zm-87.24 0.818c-0.778-1.958-5.131-2.506-7.373-1.638 2.6 0.494 4.6 2.524 7.37 1.638zm-24.98 8.192c2.952 0.459 5.32 1.505 7.782 2.457 3.207-3.892 7.626-6.573 11.877-9.42-7.85-5.493-15.33 1.848-19.66 6.963zm79.05-6.553c0.351 2.398-0.744 3.352-1.228 4.915 1.693-0.082 2.776-0.772 2.456-2.867 2.315-0.483 7.189-2.551 6.145-3.687-2.4 0.616-4.82 1.204-7.38 1.639zm20.48 3.685c3.563-0.945 8.895-2.296 9.829-4.505-3.41 1.379-8.32 1.239-9.83 4.505zm-31.95-1.228c-1.389-2.166-7.762-1.518-9.831-1.639 2.98 0.35 7.8 3.048 9.83 1.639zm-44.24-0.409c2.817-0.351 5.284 1.805 7.373 0.818-2.1-0.296-5.75-2.681-7.37-0.818zm33.59 2.457c-0.959-1.645-4.03-3.333-6.144-2.457 2.07 0.788 3.78 1.952 6.14 2.457zm-38.09-1.229c-10.414 6.607-17.509 16.601-14.335 33.176 0.718-1.602 4.152-0.49 3.276-3.687-0.718-0.112-2.044 1.153-2.458 0-0.38-2.564 3.306-1.061 2.458-4.095-0.326-1.084-1.926 0.917-2.049-0.819-0.271-1.773 0.953-2.05 2.049-2.458 0.416-9.823 5.745-14.733 12.287-18.431-0.124-0.956-0.875-1.765 0.41-2.048 2.567 0.358 3.746 1.056 4.914-0.41-2.02-0.585-4.03-1.168-6.56-1.228zm120.82 34.814c2.422-4.997 5.526-10.405 5.735-16.383-1.733-7.823-6.637-12.477-11.059-17.612-3.163-0.36-6.293 0.053-8.601 2.048-0.357 0.307-0.031 1.619-0.41 2.047-1.125 1.275-3.404 1.883-4.096 2.868-6.505 9.255-3.021 27.613-3.688 39.729 7.45-4.18 14.84-8.39 22.13-12.702zm-90.92-33.175c1.408-0.157 2.553 2.057 3.687 0.819-0.77-0.663-3.1-2.516-3.69-0.819zm22.53 3.276c2.229-1.069-0.556-3.664-2.047-3.686-0.17 2.212 3.82 1.053 2.05 3.686zm70.03 0c0.895-0.471 2.65-0.081 2.868-1.228-1.388-0.933-3.06-1.583-4.915-2.048 0.28 1.495 1.56 1.997 2.05 3.276zm-145.81 6.553c2.086 0.372 4.668 0.248 4.506 2.867-2.464 0.143-3.271-1.371-5.733-1.229-2.643 5.627 1.978 7.498 6.552 8.192 0.345-4.891 2.915-10.237 5.734-13.926-2.064-1.484-5.784-1.315-7.372-3.276-1.45 2.242-3.15 4.229-3.69 7.372zm94.62-5.734c1.54 0.422 3.301-1.03 2.457-1.638-0.69 0.683-1.98 0.759-2.46 1.638zm-49.97 0.41c-0.734-0.518-3.801-0.81-4.097-0.41 0.86 0.606 4.03 2.749 4.1 0.41zm102.8 0c0.634 2.098 2.327 3.134 2.869 5.324 1.752 0.06 3.312-1.61 4.914-0.409-1.1-3.337-3.53-7.093-7.78-4.915zm-65.53 2.458c2.08-0.242 4.009-0.634 5.735-1.229-1.018-0.212-1.461-0.998-2.049-1.638-1.226 1.501-2.494 1.154-3.687 0-0.95 0.91 0.14 1.597 0 2.867zm-48.74-0.82c-0.376-1.398-2.28-1.27-3.686-1.638 0.49 1.284 2.04 1.517 3.69 1.638zm19.66 0.82c1.891 1.387 8.415 2.047 10.649 0.409-2.59-0.439-9.71-6.112-10.65-0.409zm35.22-1.23c1.175 0.081 2.237 0.051 2.049-1.228-0.95 0.137-1.77 0.42-2.05 1.228zm19.25 5.325c6.723 0.169 11.157-1.948 13.105-6.553-2.106 0.624-4.482 0.978-6.554 1.638-0.305 1.671 2.653 0.078 2.049 2.047-0.47 3.39-7.05-0.142-8.61 2.868zm-90.92 4.505c5.574-0.886 9.633 1.704 13.106 0.41-1.2-1.742-6.816-1.765-4.097-4.915 1.606-0.876 2.369 0.68 3.687 1.229-1.96-11.651-11.91-4.116-12.7 3.276zm18.43-8.6c1.612-0.463 2.846 1.235 3.277-0.41-1.09-0.029-3.146-1.186-3.688-0.409 0.32 0.09 0.47 0.342 0.41 0.819zm82.73 6.143c0.727 0.094 2.051-0.413 1.638 0.819-2.49 4.048-4.562 9.341-5.735 13.516-1.829 1.102-2.324-0.723-3.685-1.229-2.569 4.23-4.406 8.044-5.734 12.697 4.655 3.674 8.637 8.02 13.517 11.468 4.573-3.623 0.236-14.459 1.638-22.527-1.079-0.831-1.985-1.837-1.638-4.095h1.638c0.075-5.12 2.159-13.203 3.277-17.203-1.55 2.299-4.03 3.635-4.94 6.554zm-22.93-3.686c4.829 0.221 7.382-0.85 12.287-1.229-2.4-2.533-9.55 0.09-12.29 1.229zm-52.43-1.638c0.615 1.921 1.826 0.699 3.687 1.228-0.55-1.317-2.39-1.799-3.69-1.228zm112.63 2.047c-0.802 0.838-2.055 1.222-3.687 1.229 0.803 2.474 1.105 5.448 1.638 8.192 0.568-1.229 3.075-0.964 3.688 0 0.92-3.348 0.28-7.653-1.64-9.421zm-67.58 2.867c-0.297 1.252 0.706 1.205 0.41 2.458 4.487-1.654 10.862-1.423 14.334-4.096-4.72 0.729-10.36 0.549-14.74 1.638zm-22.93 0c-1.648 0.264-4.354-0.532-5.325 0.41 1.74 0.46 4.06 0.637 5.33-0.41zm18.43 1.23c-0.336 1.048-1.935 2.951-0.818 4.095 0.137-1.775 2.268-1.555 3.276-2.458 0.31-2.357-0.86-2.005-2.46-1.637zm16.79 1.637c1.232-0.02 4.169-0.441 3.277-1.229-0.48 0.21-2.69 0.029-3.28 1.229zm-31.54-0.409c1.578 1.971 4.31 2.791 6.553 4.096 0.527-1.112 3.14-0.137 2.459-2.458-1.158-0.065-0.956 1.23-2.049 1.229-2.56-1.232-3.07-3.895-6.96-2.867zm-21.29 2.867v-2.458c-0.88-0.759-3.001-0.276-4.506-0.41-0.02 2.483 1.87 3.048 4.51 2.868zm60.2 1.229c1.788-0.286 1.821 1.182 3.276 1.229 0.477-1.981 1.916-2.999 2.458-4.915-2.17 0.971-4.34 1.944-5.74 3.686zm-39.32 0.41c-1.342-2.755-5.074-3.118-8.603-3.687-0.28 4.705 4.59 4.348 8.6 3.687zm43.83 4.505c2.281-0.911 3.924-6.651 3.687-7.373-1.27 2.425-2.7 4.682-3.69 7.373zm-59.8-5.734c0.068-0.889-1.453-0.186-2.049-0.41-0.93 1.622 2.51 1.814 2.05 0.41zm43.01 1.229c2.811 1.664 7.257 0.582 8.6-1.639-3.26 0.155-6.03 0.803-8.6 1.639zm-79.05 8.19c1.416-2.271 5.559-1.813 6.963-4.095-2.165-1.312-7.65 0.854-6.553-2.867h7.781c-0.167 0.986 0.749 0.89 0.41 2.047 1.611-0.438 3.612-0.484 4.096-2.047-4.219-1.441-7.058-1.728-12.697-1.639-0.41 2.196-0.88 6.49 0 8.601zm-17.21 10.647c2.458 0.955 4.567 2.259 7.372 2.867 0.416-7.242-0.746-12.907-0.82-19.661-2.634-0.23-4.387-1.346-6.962-1.638 0.14 6.2-0.34 14.079 0.41 18.429zm83.56-16.38c0.783-0.173 1.763-0.149 1.638-1.229-1.016 0.531-1.987-0.914-2.047 0 0.48 0.069 0.44 0.647 0.41 1.229zm70.04-1.228c0.55 3.288-2.337 5.3-1.639 7.372 1.72-2.511 4.675-3.791 4.914-7.782-1.31-0.09-1.73 0.724-3.27 0.41zm-117.96 4.095h2.867c-0.241-1.47 0.476-1.982 0.819-2.867-1.491 0.126-2.666-0.065-3.687-0.411-0.97 0.962 0.06 2.013 0 3.278zm42.18-0.819c-2.872 2.174-5.392-1.221-9.42-0.41 0.931 3.166 7.603 0.589 8.191 4.095h3.277c0.201-3.341-1.015-5.266-3.277-6.144-0.33 1.561 1.21 1.258 1.23 2.459zm13.93 0c0.504-0.861 2.467-0.265 2.866-1.229-1.275-0.226-2.668-0.334-3.684-0.819-0.07 1.016-0.09 1.987 0.81 2.048zm-96.66-0.41c-25.954 9.328-40.37 29.375-45.873 58.979-1.224 6.585-1.853 11.52-2.867 17.612-1.402 8.424-3.883 18.58-5.325 25.804-3.471 17.397-4.391 35.432-10.648 49.56-1.966 0.698-4.736 4.724-7.373 2.048 1.561-2.811 4.996-3.743 6.963-6.145 0.815-3.417 1.195-7.271 2.048-10.648-6.877 3.43-12.902 8.241-17.612 13.925-4.567 5.51-9.902 11.796-11.058 20.479 4.025-9.874 10.788-19.817 18.021-26.212 2.145-1.896 4.941-4.359 7.782-4.097-9.601 9.377-20.639 17.316-23.755 33.177-0.625 0.74-2.809-0.078-2.458 1.639-2.576 13.256 1.343 24.113 7.372 32.356 11.879 16.237 34.125 28.769 56.932 35.224 22.576 6.389 51.846 8.688 77.412 5.324-1.984-6.038-3.855-13.631-5.325-21.299-10.007 1.519-25.124 1.199-35.633 0-2.442-0.279-6.375-0.082-6.963-2.866 3.415-2.409 8.115 0.283 12.697 0.82 9.655 1.126 21.117 0.146 29.899-0.41 0.18-3.457-0.742-5.813-1.229-8.602-22.873 4.416-50.141-1.292-68.399-9.012-2.198-0.929-5.102-2.083-6.144-4.095 2.826-2.259 5.373 1.045 7.782 2.047 18.124 7.54 43.819 12.892 66.762 8.193-3.367-21.764-5.548-43.062-4.506-64.714-1.56 0.364-3.093 0.691-5.325 0.408-14.19-1.795-19.596-23.617-20.069-39.32-0.373-12.417 0.695-27.262 11.877-29.489-11.24-11.832-17.944-28.2-20.888-48.33 1.7-3.036 5.045-3.675 9.83-5.325 13.482-4.647 30.857-5.459 44.235-9.01-6.17-0.034-18.275 3.108-20.479-1.639 4.326-1.856 13.757 1.727 18.84-0.819-6.707 1.015-12.259-2.697-18.021-2.048-6.562 0.74-14.479 7.759-21.708 7.782-4.123 0.013-11.996-3.326-14.744-5.325-0.558-4.486 0.082-7.496-0.41-11.878-3.302 0.385-4.893 2.48-8.601 2.458-7.49 5.118-15.515 10.122-21.298 17.203-2.496 3.057-3.638 9.015-7.372 9.42 6.14-13.799 17.948-24.424 31.946-29.49 1.548-0.56 5.672-0.458 5.325-3.686h-1.229c-0.13-0.006-0.26-0.006-0.4-0.006zm99.94 2.458c1.794-0.155 2.106 1.17 3.687 1.229 1.319-1.138 3.436-1.479 4.097-3.276-3.35-0.065-6.19 0.37-7.79 2.047zm-36.45 0.818v-2.047h-2.459c0.25 1.247 0.91 2.094 2.46 2.047zm47.92 1.23c1.594-0.181 1.677-1.872 2.458-2.867-0.554-0.128-0.782-0.583-1.639-0.409-0.53 0.846-1.7 2.277-0.82 3.276zm-90.11 5.324c1.157 2.104-0.663 6.265 0.818 8.191 4.406-2.421 9.541-4.113 14.335-6.144-1.107-1.836 0.233-2.814 1.229-3.687-1.713-1.105-4.149 0.854-4.916-0.819-0.525-2.163 1.49-1.787 2.457-2.458-4.83-1.537-10.32 2.563-13.92 4.912zm68.81-4.096c1.195 0.443 2.36 0.918 4.098 0.819-0.329-1.72-2.51-1.586-3.687-2.458-0.13 0.555-0.59 0.783-0.41 1.639zm9.83-0.819c-0.403-0.584-2.578-1.474-3.276-0.409 0.63 0.944 2.58 1.768 3.28 0.409zm1.63 2.867c1.871 1.073 4.001 2.243 6.145 0.409-1.44-1.247-4.52-2.585-6.14-0.409zm-86.42 3.28c1.5 0.303 2.275-1.007 3.276 0-0.243-0.848 0.506-2.69-0.409-2.867-0.33 1.573-3.17 0.647-2.87 2.867zm34.41-1.642c0.28 0.975 2.271 1.266 2.047-0.409-0.96-0.125-1.77-0.875-2.05 0.409zm-8.19-0.409c-0.849 0.244-2.691-0.506-2.867 0.409 0.55 0.56 2.86 0.781 2.87-0.409zm47.1 1.641c1.377 0.01 2.167-0.564 2.866-1.229-1.252 0.298-1.204-0.706-2.456-0.409 0.09 0.772-0.46 0.9-0.41 1.638zm-34.41 2.05c2.835 0.742 6.935 0.428 9.011-0.819-1.65-2.752-8.86-3.771-9.01 0.82zm13.11-1.23c-1.157 0.338-1.06-0.578-2.046-0.41-0.72 1.83 2.17 1.47 2.05 0.41zm-52.02 2.04c0.463 2.34-0.121 3.18 0.818 4.915h2.049c0.594-1.329 0.742-5.247 0-6.553-1.01 0.49-1.36 1.65-2.87 1.64zm65.54-0.81c-0.318 0.911-0.238 2.221-1.23 2.458-0.538-0.417-1.51-0.402-2.049-0.819 1.015 1.854 4.44 1.296 6.963 1.638v-3.686c-1.68-0.33-2.1 0.62-3.68 0.41zm11.46 1.22c0.361 1.715 4.133 1.685 4.095-0.41-0.087-0.459-0.453-0.637-0.818-0.819-0.44 1.06-2.64 0.36-3.28 1.23zm52.02 8.6c1.815-2.282 2.775-5.418 4.097-8.192-8.325 4.099-17.01 7.839-22.527 14.745 1.158 0.789 3.084 3.163 1.229 4.506-2.399 0.215-2.062-2.308-3.685-2.867-1.834 1.716-3.859 3.242-4.916 5.733 8.515 1.724 10.346 10.133 14.745 15.974 3.219 0.215 1.56-4.448 3.687-5.325 2.55-7.962 4.923-16.102 7.371-24.165-4.347 3.708-2.832 13.277-7.781 16.383 0.044-4.55 3.152-9.373 4.915-13.925 1.095-2.827 1.05-6.305 3.686-7.782 2.07 2.1-2.28 3.43-0.83 4.9zm-34.81-4.5c-2.74 2.175-3.561 6.27-5.735 9.01 3.72 3.243 5.822 8.105 12.287 8.602 1.544-2.826 3.937-4.801 5.735-7.372-3.64-3.88-7.34-7.68-12.29-10.24zm-40.14 3.69c0.089-2.547-1.938-2.979-4.095-3.277 1.32 1.13 3.27 1.64 4.09 3.28zm31.53 0.41c2.421 0.782 4.576-2.612 3.688-2.458-0.77 1.27-3.76 0.33-3.69 2.46zm-15.15-0.82c-0.671-0.448-2.817-1.516-3.687-0.409 1.29 0.57 2.24 1.21 3.69 0.41zm-20.48 0c-2.74-1.281-6.019 0.288-9.013 0.819-16.524 2.933-35.661 3.665-48.329 10.239 5.913 8.848 9.942 21.152 14.334 32.767 2.507 6.627 4.708 15.382 10.649 17.611-0.13 0.95 0.065 1.572 0.409 2.048 9.172 8.253 25.475 7.023 40.14 9.42-3.796-6.17-7.066-12.867-9.421-20.479-4.144 2.318-8.185 7.553-14.744 4.915-6.083-8.785 4.816-16.453 7.372-24.166 3.745-2.852 7.235-10.179 12.697-8.601-2.507 2.407-5.53 4.3-7.782 6.963 0.644 0.039 1.42-0.055 1.229 0.818-1.307 0.244-1.267-0.768-2.049 0-1.328 2.73-3.822 5.519-5.732 9.01-2.05 3.746-6.314 9.369-4.507 13.107 2.873 1.618 6.865 0.241 8.193-2.047-2.049-0.055-3.453 0.765-4.506-0.82 1.336-1.849 8.923-4.549 6.962-0.409 1.29 0.197 0.929-1.258 2.459-0.819-4.435-12.314 0.881-23.687 11.878-26.213-3.03-9.34-7.13-15.11-10.24-24.16zm8.19 2.86c-1.365-0.137-1.816-1.187-3.686-0.819-0.23 1.5 3 1.63 3.69 0.82zm22.12 4.92c1.114-0.252 1.919-0.812 2.457-1.638-2.158-0.027-3.005-1.362-5.323-1.229 0.46 1.44 2.01 1.81 2.86 2.87zm-4.1 0.82c0.017-1.245 0.239-2.696-1.229-2.458-0.88 0.94-0.14 2.56 1.23 2.46zm-15.15 0.41c1.862 1.19 6.327 2.57 8.603 0.82-0.607-0.077-0.375-0.99-0.411-1.639-2.61-1.14-5.68 0.52-8.19 0.82zm22.12 12.28c2.327-3.406 5.592-5.875 9.829-7.372-1.658-2.164-3.611-4.034-5.733-5.734-0.21 3.88-4.97 8.22-4.1 13.1zm-3.28-7.37c0.476 0.343 1.099 0.54 2.049 0.409-0.305-1.261 1.123-0.787 0.818-2.047-1.5 0.01-2.2 0.81-2.87 1.64zm-13.51 1.64c-3.073-0.203-4.677-1.877-7.372-2.457 0.63 2.37 4.57 3.61 7.37 2.46zm-4.92 3.28c-0.114 2.174 3.95 1.256 4.098 0-0.94-0.81-2.29 0.43-4.1 0zm-56.11 29.9c-3.682-9.835-5.61-21.424-11.878-28.67 2.37 11.14 5.31 21.72 11.88 28.67zm58.16-25.4c1.855-1.285 7.184 0.903 7.781-1.638-2.22-1.92-6.43 0.09-7.78 1.64zm11.47 0c1.199-0.106 1.259 0.926 2.459 0.819-0.156-1.522 1.658-1.07 1.229-2.867h-2.459c0.43 1.53-0.87 1.33-1.23 2.05zm5.73 2.87c0.118-1.67 2.322-3.391 1.228-4.915-0.22 1.59-3.17 3.75-1.23 4.91zm-11.47-0.82c1.08-0.124 1.346 0.567 1.23 1.638-1.661-0.522-5.589 1.218-5.324-1.228-10.922 1.142-18.037 8.418-15.154 20.888 1.461-0.394 3.087-0.276 4.505 1.229 0.904-0.48 2.206-2.682 3.686-1.229-0.15 3.033-4.076 3.865-6.963 2.867-0.146 1.646 0.007 2.998 1.229 3.277 0.868-1.591 3.288 0.076 4.506-1.638-0.126 0.944 1.184 0.455 1.229 1.229-1.328 1.266-2.213 2.975-5.324 2.458 0.884 1.984 0.99 4.744 2.458 6.144 4.647-2.148 7.743-2.327 12.286-4.915 1.022 2.83 4.899 1.1 5.325-1.229-0.85-0.244-2.69 0.506-2.866-0.41 0.001-0.41-0.333-0.487-0.41-0.818 2.247-1.575 5.172-2.474 6.962-4.506 2.611 2.596-2.186 4.184-3.276 5.735 1.694-0.33 2.103 0.628 2.049 2.047 2.486-0.244 3.284-2.175 4.504-3.686 0.85 0.242 1.396 0.788 1.639 1.638-0.839 2.711-4.771 5.77-8.191 3.277-0.837 2.262-5.003 2.671-6.553 0.819-0.938 1.105 0.508 3.67-2.048 5.325-1.254 0.811-5.327 2.378-5.325-1.229 2.636 0.316 3.917-0.726 4.505-2.457-1.491 0.126-2.665-0.065-3.685-0.41-0.136 2.459-3.364 1.825-4.507 3.277 1.327 1.268 1.682 3.506 3.277 4.505 0.225-1.438 2.376-0.658 3.275-0.41 1.047-0.865 1.143-2.681 2.869-2.867 0.6 0.356 1.298 0.613 1.228 1.639-1.686 1.728-2.757 4.071-5.735 4.505 0.906 0.325 0.534 1.925 1.639 2.048-0.75-2.389 1.79-1.488 3.279-1.64 1.006-2.269 1.97-4.583 5.732-4.095 1.028-0.747 0.75-2.799 2.458-2.866 1.787 1.818 6.095 1.416 7.371-1.229 0.851 0.244 2.691-0.506 2.868 0.41-0.618 1.702-2.876 1.766-2.458 4.505 1.259 0.583 1.841 0.184 2.866-0.41 0.405-1.634-1.223-1.233-0.817-2.867 2.82-0.182 3.938-2.069 5.324-3.686 0.543 0.411 1.523 0.387 1.638 1.229-2.267 3.222-5.322 11.972-10.649 6.963-1.158 0.752-2.369 1.452-3.687 2.047-1.738-1.939 1.155-4.052-1.639-5.323-0.794 2.207-2.278 3.727-5.324 3.686-0.896 2.176-2.813 5.283-5.732 4.095 2.293 5.491 7.81 9.938 13.516 10.649-1.146 0.036-1.146-2.493 0-2.457 0.965-0.009 1.205 0.706 2.456 0.409 0.567-1.691 1.812-4.417 3.688-2.458 0.296 1.253-0.706 1.205-0.41 2.458 1.952 0.315 2.699-0.579 3.277-1.638-1.705 0.065-2.522-0.754-2.457-2.458 3.284 0.009 3.612-2.941 5.734-4.096 1.024-0.069 1.281 0.629 1.638 1.229-0.877 1.581-2.211 2.704-3.276 4.096 4.145 0.499 5.7-6.603 4.915-11.059-1.668 0.379-1.443 2.654-4.097 2.048-0.234-0.856-1.016-1.169-0.818-2.458 2.593-0.408 3.8-2.206 4.915-4.096-0.445-5.017-2.696-8.227-4.097-12.288-2.109 0.211-1.852 2.79-3.687 3.277-1.105-0.396-1.976-1.027-2.048-2.458 2.548-0.456 3.113-2.895 4.506-4.505-4.89-8.36-4.45-24.23-18.05-22.51zm49.97 34.81c0.161-8.708 3.141-18.186-1.228-25.803-0.06 7.54-0.31 17.68 1.23 25.8zm-117.14 19.26c6.618 1.629 8.037-5.289 9.011-10.649 1.362-1.232 2.562-2.625 2.867-4.915-0.989-1.469-1.895-3.022-3.686-3.687-4.61 4.08-11.89 9.54-8.19 19.25zm111-15.98c0.779 0.175 1.028 0.882 2.047 0.819 0.006-1.089-0.153-2.34 0.41-2.868-1.82-0.31-1.65 1.36-2.46 2.05zm-17.61 3.28c2.474 0.341 3.042 0.98 5.734 0.409-0.456-1.594-4.767-1.052-2.867-3.686h-2.867c0.01 1.09 0.01 2.19 0.01 3.28zm-92.16 36.86c-0.317 1.457 1.698 9.733 3.276 10.648-0.723-0.867-1.478-3.14 0.41-3.276 2.216 4.475 4.524 8.857 6.963 13.107 7.887 2.805 18.119-0.356 22.117-4.506 3.926-4.075 7.396-10.084 12.288-15.565 4.592-5.145 9.655-9.659 12.695-13.924 2.163-3.035 3.06-5.873 4.915-8.192-1.911-2.184-3.965-4.227-5.732-6.553-16.231-1.656-34.203-1.568-43.825-9.83-4.247 5.856-3.601 16.606-13.107 17.203-1.488 7.515 1.354 15.084 2.049 20.889 0.097 0.815 1.229 3.069-0.82 3.277-0.98-0.54-0.8-2.22-1.24-3.28zm104.85-32.36c2.43-0.714 5.317-3.137 4.914-5.323-0.133 0.958-1.786 0.397-2.048 1.228 0.735-0.052 0.958 0.406 0.818 1.229-1.31 0.86-3.39 0.96-3.68 2.86zm-6.96 6.15c-0.276 3.847-0.938 8.668 0.819 11.468 5.942-6.344 12.911-13.847 15.154-22.526-3.15 5.86-8.03 9.99-15.97 11.06zm-5.73-3.69c2.22 0.844 4.85 0.696 6.963 0.41 0.092-0.774-0.462-0.903-0.409-1.638-2.657 0.791-4.597 0.104-6.554-0.819v2.05zm36.04 105.67c-1.39-0.521-1.18-2.642-2.868-2.866-1.868-4.967-5.421-11.401-9.42-15.564-2.849-8.344-8.399-13.99-10.238-23.346-1.161-0.069-0.8 1.386-2.457 0.818-2.77-6.978-6.305-16.887-8.192-24.573-0.822-3.349-0.939-7.043-1.229-10.649-0.252-3.119-2.37-7.486 0.41-9.83 1.647 14.609 3.237 32.423 11.058 42.186-3.832-18.968-9.714-35.886-10.239-58.161-1.477-0.161-2.747-0.53-4.095-0.819-2.689 5.504-5.575 10.809-13.516 11.059 5.288 15.362 2.043 31.903 1.228 47.921-0.801 15.704 7.124 30.002 7.373 45.873 16.361 10.808 35.928 18.407 50.377 31.128-1.32-13.35-5.1-22.01-8.18-33.18zm-130.25-86.83c0.242-3.717-0.915-8.833 1.639-10.24-1.252 0.296-1.494-0.418-2.458-0.409 0.44 2.74-0.73 7.99 0.82 10.65zm79.05-7.78c0.437 0.474 1.886 0.15 2.457-0.41-0.584-0.098-0.69-0.674-1.229-0.818-0.05 0.77-1.35 0.28-1.23 1.23zm-12.29-0.82c-2.512 3.827-5.096 7.247-8.191 11.06-2.67 3.286-5.528 6.108-8.602 9.419-8.436 9.093-12.574 20.694-26.213 23.347 1.012 12.259 0.288 23.022 1.229 35.224 0.413 5.378 1.749 10.521 2.458 15.564 0.782 5.561 1.036 11.061 1.637 16.382 1.347 11.902 3.7 22.373 6.964 32.767 3.138 9.993 7.317 19.677 9.829 30.31 0.815 3.443 0.405 7.045 2.869 9.828 8.357-5.77 12.729-12.441 18.021-21.297 4.817-8.065 9.512-15.354 11.877-24.985 2.143-8.718 6.531-17.674 7.373-27.85 1.633-19.763-8.406-38.195-7.783-57.751 0.504-15.778 3.655-30.742-0.407-44.645-0.964-0.811-2.1-1.45-1.639-3.686-3.8-0.433-5.499-2.967-9.011-3.687h-0.42zm-59.39 34.4c-0.838-0.528-0.434-2.299-1.639-2.457-0.09 1.22 1.2 3.14 1.64 2.46zm121.24 52.84c5.833-23.611-8.054-41.489-22.116-51.606 2.46 22.13 11.64 37.52 22.12 51.61zm7.78 3.28c-2.299-1.66-1.801-6.118-4.095-7.781-0.44 2.973-1.132 5.695-2.049 8.191 4.194 7 6.623 15.769 8.602 24.984 4.759 1.111 3.732 8.01 6.963 10.649 0.315-3.645 0.55-7.368 0.409-11.468-3.643-4.962-6.622-12.765-7.372-19.251 2.708 0.978 2.104 5.27 4.095 6.963-3.034-9.116-6.1-18.201-10.24-26.214 0.39 5.01 5.62 9.33 3.7 13.93zm-259.26 38.5c4.344 19.55 18.793 34.033 35.633 43.824 16.982 9.873 37.476 17.548 58.569 20.89 27.395 4.336 58.154 3.207 82.736-1.23 4.243-0.765 8.833-1.821 12.696-2.867 34.638-9.368 63.978-26.8 76.181-52.017-0.016-3.292 1.776-4.776 2.049-7.782-2.455-2.322-2.513-7.044-4.915-9.418 1.149 4.819 1.864 8.686-1.229 12.286-3.763-0.989-5.414-4.74-8.191-6.964-3.351-2.68-7.398-4.393-11.06-6.961 2.592 8.536 6.588 17.192 9.83 24.983 1.044 2.511 3.128 5.545 2.048 8.191-2.328-1.852-3.024-5.166-4.097-7.781-3.558-8.694-7.201-17.524-10.239-26.624-1.572-0.475-2.629-1.465-4.094-2.048-6.462 4.599-12.715 9.404-20.069 13.107 2.229 8.707 3.724 19.309 5.324 29.08 0.72 4.398 1.857 9.142 0.818 13.106-4.057-12.188-3.622-28.871-7.781-40.959-3.492 1.152-5.854 3.431-9.421 4.505-2.243 10.105-4.872 17.051-9.83 25.395-6.873 11.571-13.587 21.603-24.575 27.442-5.95-12.069-7.368-28.674-13.517-40.549-19.365 1.967-38.803 1.641-56.521-1.229-23.715-3.841-48.593-12.37-64.304-24.165-12.497-9.382-24.445-24.462-25.803-42.186-3.431 15.92-14.598 30.42-10.254 49.97zm206.43 1.23c10.058-4.414 19.503-9.442 26.623-16.792-4.876 0.885-8.183 4.845-11.877 7.371-3.865 2.645-7.913 5.583-12.698 6.145 6.248-5.902 15.91-8.392 20.89-15.563-6.623-2.798-11.827-7.015-18.023-10.24 1.18 10.05-2.38 21.13-4.91 29.07z"/>
	<path d="m212.18 158.92c-1.393 1.611-1.958 4.05-4.506 4.505 0.072 1.43 0.942 2.061 2.048 2.458 1.835-0.487 1.577-3.066 3.687-3.277 1.4 4.061 3.651 7.271 4.097 12.288-1.115 1.89-2.322 3.688-4.915 4.096-0.197 1.289 0.584 1.602 0.818 2.458 2.653 0.606 2.429-1.668 4.097-2.048 0.785 4.456-0.771 11.558-4.915 11.059 1.065-1.392 2.399-2.515 3.276-4.096-0.356-0.6-0.613-1.298-1.638-1.229-2.122 1.155-2.45 4.104-5.734 4.096-0.065 1.703 0.752 2.522 2.457 2.458-0.578 1.06-1.325 1.953-3.277 1.638-0.296-1.252 0.706-1.205 0.41-2.458-1.875-1.959-3.12 0.767-3.688 2.458-1.251 0.296-1.491-0.418-2.456-0.409-1.146-0.036-1.146 2.493 0 2.457-5.706-0.711-11.223-5.158-13.516-10.649 2.919 1.188 4.836-1.919 5.732-4.095 3.046 0.042 4.53-1.479 5.324-3.686 2.794 1.271-0.1 3.384 1.639 5.323 1.317-0.595 2.528-1.295 3.687-2.047 5.327 5.008 8.383-3.742 10.649-6.963-0.114-0.841-1.095-0.817-1.638-1.229-1.387 1.617-2.504 3.504-5.324 3.686-0.405 1.634 1.223 1.233 0.817 2.867-1.025 0.594-1.607 0.992-2.866 0.41-0.418-2.739 1.84-2.803 2.458-4.505-0.177-0.916-2.018-0.166-2.868-0.41-1.276 2.646-5.584 3.047-7.371 1.229-1.708 0.067-1.43 2.12-2.458 2.866-3.763-0.488-4.727 1.827-5.732 4.095-1.489 0.151-4.029-0.75-3.279 1.64-1.104-0.124-0.732-1.724-1.639-2.048 2.979-0.435 4.05-2.777 5.735-4.505 0.07-1.025-0.628-1.283-1.228-1.639-1.727 0.186-1.822 2.002-2.869 2.867-0.899-0.248-3.051-1.029-3.275 0.41-1.596-0.999-1.95-3.237-3.277-4.505 1.143-1.453 4.371-0.818 4.507-3.277 1.02 0.345 2.193 0.537 3.685 0.41-0.588 1.731-1.869 2.773-4.505 2.457-0.002 3.607 4.071 2.04 5.325 1.229 2.556-1.655 1.11-4.219 2.048-5.325 1.55 1.852 5.716 1.442 6.553-0.819 3.42 2.493 7.353-0.566 8.191-3.277-0.242-0.851-0.789-1.396-1.639-1.638-1.22 1.51-2.018 3.442-4.504 3.686 0.054-1.419-0.354-2.377-2.049-2.047 1.091-1.551 5.888-3.139 3.276-5.735-1.79 2.033-4.715 2.931-6.962 4.506 0.077 0.331 0.411 0.408 0.41 0.818 0.176 0.916 2.017 0.167 2.866 0.41-0.426 2.328-4.303 4.059-5.325 1.229-4.543 2.588-7.639 2.767-12.286 4.915-1.468-1.399-1.574-4.16-2.458-6.144 3.111 0.518 3.996-1.191 5.324-2.458-0.045-0.773-1.354-0.285-1.229-1.229-1.218 1.714-3.638 0.047-4.506 1.638-1.222-0.279-1.374-1.631-1.229-3.277 2.887 0.998 6.812 0.166 6.963-2.867-1.479-1.453-2.781 0.749-3.686 1.229-1.418-1.505-3.044-1.623-4.505-1.229-2.883-12.47 4.232-19.746 15.154-20.888-0.265 2.446 3.663 0.706 5.324 1.228 0.115-1.07-0.15-1.761-1.23-1.638 13.62-1.73 13.18 14.14 18.04 22.52zm-5.73-7.78c-0.342 2.63-2.528 3.325-4.505 3.277 1.248 4.543 6.703 0.256 6.963-2.458-0.72-0.37-1.03-1.15-2.45-0.82zm5.73 13.51c-0.834 3.092-2.794 6.428-6.963 4.915-0.769 2.646-4.377 2.451-5.325 4.916 2.901 2.104 5.297-1.615 7.373-2.867 3.37 2.017 6.278-2.818 6.964-6.145-0.78-0.17-1.03-0.87-2.05-0.81zm-8.19 23.76c-2.459-1.566 2.418-3.355 0.407-5.734-2.933-0.339-2.169 3.017-4.094 3.687h-2.868c0.618-1.294 2.214-1.609 2.047-3.687-0.965 0.009-1.204-0.706-2.456-0.41-0.273 3.267-3.022 2.26-5.324 2.868-0.012 3.267 3.623 2.352 5.324 1.229-0.562 1.296-0.09 1.368 0 2.867 1.245-0.017 2.695-0.238 2.456 1.229-1.25-0.297-1.204 0.707-2.456 0.409v2.458c3.43-0.55 6.61-1.32 6.96-4.93zm4.51-3.28c-1.343 0.666-1.566-0.092-3.277 0 1.493 6.349 8.833-0.276 7.373-4.096-3.24-0.51-2.37 3.09-4.09 4.1zm-9.01-13.11c-0.812-0.005-0.52-1.118-1.637-0.819-0.972 2.305-3.532 3.021-6.554 3.277 1.06 4.73 8.14 1.15 8.19-2.46zm-3.69-29.08c1.672 3.484 4.602-1.311 5.324-3.687-0.965-0.127-0.762-1.423-2.048-1.229-0.67 2.06-2.15 3.32-3.27 4.92zm-13.92 0.41c0.986-0.167 0.891 0.749 2.048 0.41 0.438-2.431 3.955-1.779 4.506-4.096-3.07-1.27-6.41 0.7-6.56 3.69zm7.78 1.23c0.319 0.09 0.476 0.342 0.41 0.819 3.505 0.229 4.441-2.112 5.732-4.096-2.22-1.83-4.75 1.72-6.14 3.28zm7.78 3.28c3.842-0.162 6.787-3.255 6.145-6.553-2.79 1.44-5.1 3.36-6.14 6.55zm-17.2-2.05c0.761 1.662 4.453 2.23 6.553 1.229v-1.638c-2.49 0.63-5.46-2.74-6.55 0.41zm7.37 2.46c1.489 3.674 4.913-0.892 7.783-0.819 0.4-5.19-5.1 0.49-7.78 0.82zm11.06 1.23c0.017 1.348 0.691 2.039 0.408 3.687-1.031 2.185-4.098 0.072-5.323 1.639 0.854 3.664 5.583 1.21 7.371 0-0.203-4.52 5.155-4.26 5.325-9.42-0.714 0.031-1.272-0.092-1.639-0.411-0.93 2.62-2.66 4.44-6.15 4.5zm-22.94-0.82c-1.638 3.609 9.291 5.166 9.012 0.41-2.74 0.55-6.56-0.23-9.01-0.41zm12.29 3.68c-0.338 1.159 0.577 1.062 0.41 2.049 4.102-0.402 7.291-1.719 8.19-5.325-3.72-1.21-4.16 3.91-8.6 3.28zm-8.6 0.82c-1.589 4.521 7.726 3.262 7.78 0-2.21-1.6-4.14 1.26-7.78 0zm5.32 4.1c0.947 3.431 6.609 0.982 8.191 0-0.004-1.088 0.155-2.339-0.41-2.867-2.2 2.05-4.98 2.17-7.78 2.87zm19.25 3.68c0.113 0.841 1.093 0.818 1.639 1.229 1.759-1.653 3.919-2.907 4.503-5.734-0.781-0.175-0.741-1.17-2.047-0.819-0.38 2.75-3.09 3.19-4.09 5.32zm-11.47-1.22c1.583 4.887 7.34-0.191 9.011-1.639-2.35-4.06-5.15 3.19-9.01 1.64zm-9.01 2.04c0.997 3.199 8.258 1.362 8.191-1.64-2.16-0.43-5.78 0.98-8.19 1.64zm-2.05 4.51c0.41 4.927 9.446 1.205 7.372-2.457-2.16 0.07-3.97 3.14-7.37 2.46z" fill="#9C7D0D"/>
	<path d="m129.45 217.9c2.049-0.208 0.917-2.462 0.82-3.277-0.695-5.805-3.537-13.374-2.049-20.889 9.507-0.597 8.86-11.346 13.107-17.203 9.622 8.262 27.594 8.174 43.825 9.83 1.768 2.327 3.821 4.369 5.732 6.553-1.855 2.319-2.752 5.157-4.915 8.192-3.04 4.265-8.104 8.78-12.695 13.924-4.892 5.481-8.362 11.49-12.288 15.565-3.998 4.149-14.23 7.311-22.117 4.506-2.439-4.25-4.747-8.633-6.963-13.107-1.887 0.137-1.132 2.409-0.41 3.276-1.579-0.915-3.594-9.191-3.276-10.648 0.44 1.07 0.26 2.75 1.23 3.29zm43.01-27.86c4.57 0.511 7.823 4.426 10.649 5.325-0.524-3.876-5.946-6.317-11.06-6.963-0.03 0.72 0.09 1.28 0.41 1.64zm9.42 9.02c1.049-2.937-2.33-4.318-4.096-5.735-0.86 2.6 2.62 4.14 4.1 5.74zm-18.84-3.69c0.092 0.319 0.011 0.809 0.409 0.819 0.218 2.649 1.228 4.507 2.867 5.734 2.089 2.51 4.924 10.049 8.192 7.373-3.825-4.093-8.433-7.404-9.422-14.336-0.96-0.12-1.58 0.08-2.05 0.42zm-22.94 28.26c2.465 1.381 6.222 7.018 9.421 3.686-0.83-2.034-3.561-2.173-5.324-3.276-6.493-5.385-6.695-17.059-10.24-25.394-0.089-0.318-0.343-0.477-0.818-0.41-0.14 7.9 2.34 18.23 6.96 25.39zm9.42 1.64c0.992-0.937 0.495-1.45 0.41-2.867-4.842-1.164-6.282-5.731-7.373-10.649h-1.228c0.09 7.15 4.01 10.47 8.19 13.52zm1.64-6.96c-0.927-1.668-2.528-2.661-3.686-4.096h-0.82c0.19 2.49 1.88 5.37 4.51 4.1z" fill="#D31145"/>
	<path d="m236.76 179.4c0.14-0.823-0.083-1.281-0.818-1.229 0.262-0.831 1.915-0.27 2.048-1.228 0.403 2.186-2.484 4.609-4.914 5.323 0.28-1.9 2.36-2 3.68-2.86z" fill="#9C7D0D"/>
	<path d="m242.08 177.35c-2.243 8.679-9.212 16.182-15.154 22.526-1.757-2.799-1.096-7.621-0.819-11.468 7.94-1.07 12.82-5.2 15.97-11.06z" fill="#D31145"/>
	<path d="m264.61 323.57c-14.449-12.721-34.016-20.32-50.377-31.128-0.249-15.871-8.174-30.169-7.373-45.873 0.815-16.018 4.061-32.559-1.228-47.921 7.94-0.25 10.826-5.554 13.516-11.059 1.348 0.289 2.618 0.658 4.095 0.819 0.525 22.274 6.407 39.193 10.239 58.161-7.82-9.763-9.41-27.577-11.058-42.186-2.78 2.343-0.662 6.711-0.41 9.83 0.289 3.606 0.406 7.301 1.229 10.649 1.888 7.687 5.423 17.596 8.192 24.573 1.657 0.567 1.296-0.888 2.457-0.818 1.839 9.355 7.39 15.002 10.238 23.346 3.999 4.163 7.552 10.598 9.42 15.564 1.688 0.225 1.479 2.345 2.868 2.866 3.08 11.17 6.86 19.83 8.19 33.18zm-2.46-12.29c-3.149-4.221-1.991-12.752-6.962-15.154 0.007 3.514 2.976 7.799 4.095 11.879 0.439 1.597 0.057 3.691 1.229 4.504 0.08 0.69 1.95-0.19 1.64-1.23zm-36.04-64.71c-0.388-3.203-2.972-7.648-4.096-11.468h-1.229c0.49 3.51 2.08 9.36 5.33 11.47zm-9.01 33.99c2.548 0.451 4.383-1.666 5.325-2.457 3.348-2.812 8.539-4.186 10.649-8.192-5.77 3.1-11.16 6.59-15.97 10.65zm18.43-9.42c-1.952 3.642-6.802 4.393-9.011 7.781 1.561 1.355 2.462-0.572 3.275-1.229 2.544-2.235 6.479-3.078 7.784-6.552h-2.05zm13.51 18.02c-1.55 4.319-6.188 5.553-7.781 9.829 4.6-1.679 7.067-5.493 9.01-9.829h-1.23zm0.42 9.42c3.072-0.53 4.655-4.557 5.324-6.144-3.16 0.67-4.16 3.48-5.32 6.14z" fill="#D31145"/>
	<path d="m131.91 226.91c1.206 0.158 0.801 1.929 1.639 2.457-0.45 0.67-1.74-1.25-1.64-2.46z" fill="#D31145"/>
	<path d="m258.88 271.55c4.141 8.013 7.206 17.098 10.24 26.214-1.991-1.693-1.387-5.985-4.095-6.963 0.75 6.486 3.729 14.289 7.372 19.251 0.141 4.1-0.094 7.823-0.409 11.468-3.23-2.64-2.204-9.538-6.963-10.649-1.979-9.216-4.407-17.984-8.602-24.984 0.917-2.496 1.608-5.219 2.049-8.191 2.294 1.663 1.796 6.121 4.095 7.781 1.92-4.6-3.31-8.92-3.68-13.93z" fill="#A99A6F"/>
	<path d="m146.24 65.533c-1.168 1.466-2.347 0.768-4.914 0.41-1.285 0.283-0.534 1.092-0.41 2.048-6.542 3.697-11.872 8.607-12.287 18.431-1.096 0.407-2.32 0.685-2.049 2.458 0.123 1.736 1.723-0.265 2.049 0.819 0.849 3.034-2.837 1.531-2.458 4.095 0.414 1.153 1.739-0.112 2.458 0 0.875 3.197-2.558 2.085-3.276 3.687-3.174-16.575 3.921-26.568 14.335-33.176 2.54 0.059 4.55 0.642 6.56 1.228z" fill="#A99A6F"/>
	<path d="m197.03 193.32v-2.458c1.252 0.298 1.206-0.706 2.456-0.409 0.239-1.467-1.211-1.246-2.456-1.229-0.09-1.499-0.562-1.571 0-2.867-1.701 1.123-5.336 2.038-5.324-1.229 2.302-0.607 5.051 0.399 5.324-2.868 1.252-0.296 1.491 0.419 2.456 0.41 0.167 2.078-1.429 2.393-2.047 3.687h2.868c1.925-0.669 1.161-4.025 4.094-3.687 2.011 2.378-2.866 4.167-0.407 5.734-0.35 3.63-3.53 4.4-6.96 4.93z"/>
	<path d="m13.538 274.01c1.358 17.724 13.306 32.804 25.803 42.186 15.711 11.795 40.589 20.324 64.304 24.165 17.718 2.869 37.156 3.195 56.521 1.229 6.148 11.875 7.566 28.479 13.517 40.549 10.988-5.84 17.702-15.871 24.575-27.442 4.958-8.344 7.587-15.289 9.83-25.395 3.567-1.074 5.929-3.353 9.421-4.505 4.159 12.088 3.725 28.771 7.781 40.959 1.039-3.965-0.099-8.708-0.818-13.106-1.601-9.771-3.096-20.373-5.324-29.08 7.354-3.703 13.607-8.509 20.069-13.107 1.465 0.583 2.521 1.573 4.094 2.048 3.038 9.1 6.682 17.93 10.239 26.624 1.072 2.615 1.769 5.93 4.097 7.781 1.08-2.646-1.004-5.681-2.048-8.191-3.242-7.791-7.238-16.447-9.83-24.983 3.661 2.568 7.709 4.281 11.06 6.961 2.777 2.224 4.429 5.975 8.191 6.964 3.093-3.601 2.378-7.467 1.229-12.286 2.402 2.374 2.46 7.096 4.915 9.418-0.272 3.006-2.064 4.49-2.049 7.782-12.203 25.217-41.543 42.648-76.181 52.017-3.863 1.046-8.453 2.103-12.696 2.867-24.582 4.438-55.341 5.566-82.736 1.23-21.094-3.342-41.587-11.017-58.569-20.89-16.84-9.791-31.289-24.274-35.633-43.824-4.337-19.55 6.83-34.05 10.246-49.97zm-1.228 8.19c-2.898 8.851-6.67 18.989-8.602 27.443 3.161-0.491 2.546-4.717 3.277-6.964 0.972-2.991 2.976-5.802 2.867-9.011 2.046-3.142 2.921-7.453 4.096-11.469h-1.638zm8.601 37.27c0.186 1.962-0.296 3.254-1.229 4.097-0.085 2.726-1.169 5.448-2.048 8.191-0.745 2.323-3.216 5.757-0.819 7.373 3.288-10.232 7.492-21.719 9.42-31.948-0.523-0.022-0.567-0.524-1.229-0.409-1.415 4.19-1.885 9.31-4.095 12.7zm137.21 38.91c0.376 7.575 0.064 15.535 0.408 21.298 0.197 3.309 0.153 6.717 1.638 8.602 1.836-13.005-1.526-26.578-1.228-41.368-0.585-0.099-0.69-0.675-1.229-0.818-1.64 2.95 0.19 7.88 0.41 12.29z" fill="#A99A6F"/>
</g>
<metadata><rdf:RDF><cc:Work><dc:format>image/svg+xml</dc:format><dc:type rdf:resource="http://purl.org/dc/dcmitype/StillImage"/><cc:license rdf:resource="http://creativecommons.org/licenses/publicdomain/"/><dc:publisher><cc:Agent rdf:about="http://openclipart.org/"><dc:title>Openclipart</dc:title></cc:Agent></dc:publisher></cc:Work><cc:License rdf:about="http://creativecommons.org/licenses/publicdomain/"><cc:permits rdf:resource="http://creativecommons.org/ns#Reproduction"/><cc:permits rdf:resource="http://creativecommons.org/ns#Distribution"/><cc:permits rdf:resource="http://creativecommons.org/ns#DerivativeWorks"/></cc:License></rdf:RDF></metadata></svg>
